<svg width="178" height="63" viewBox="0 0 178 63" fill="none" xmlns="http://www.w3.org/2000/svg">
<path d="M7.03875 34.0532V33.6016C7.03875 33.5288 7.06808 33.4997 7.1414 33.4997H8.44656C8.51988 33.4997 8.54921 33.5288 8.54921 33.6016V36.8502C8.54921 37.0688 8.5932 37.2144 8.66653 37.2873C8.75452 37.3747 8.87183 37.4038 9.06248 37.4038H9.3851C9.66373 37.4038 9.81037 37.6223 9.81037 38.0448C9.81037 38.2924 9.78104 38.4527 9.70772 38.5547C9.6344 38.6421 9.53175 38.6858 9.3851 38.6858H8.27058C7.91863 38.6858 7.65466 38.6275 7.44936 38.5255C7.25872 38.409 7.12674 38.205 7.05341 37.9137C6.8921 38.0448 6.71613 38.1322 6.51082 38.205C6.30551 38.2633 6.08554 38.307 5.86557 38.307C5.58694 38.307 5.32298 38.2633 5.07368 38.1905C4.82438 38.1176 4.60441 37.9865 4.41377 37.8263C4.22313 37.666 4.07648 37.4475 3.95916 37.1853C3.84185 36.9231 3.79785 36.6026 3.79785 36.2384C3.79785 35.8159 3.85651 35.4663 3.98849 35.1895C4.10581 34.9127 4.28179 34.6942 4.47243 34.5194C4.67773 34.3592 4.91237 34.2426 5.16167 34.1698C5.42563 34.097 5.6896 34.0678 5.95356 34.0678H7.03875V34.0532ZM4.86837 32.7422C4.79505 32.7422 4.76572 32.713 4.76572 32.6402V31.6059C4.76572 31.533 4.79505 31.5039 4.86837 31.5039H5.9389C6.01222 31.5039 6.04155 31.533 6.04155 31.6059V32.6402C6.04155 32.713 6.01222 32.7422 5.9389 32.7422H4.86837ZM6.15887 37.0105C6.42283 37.0105 6.6428 36.9376 6.80411 36.7774C6.96543 36.6317 7.03875 36.3841 7.03875 36.0636V35.3352H6.1882C5.92423 35.3352 5.70426 35.3935 5.54295 35.5246C5.38164 35.6557 5.29365 35.8888 5.29365 36.2238C5.29365 36.5152 5.38164 36.7191 5.54295 36.8357C5.70426 36.9522 5.90957 37.0105 6.15887 37.0105ZM6.51082 32.7422C6.4375 32.7422 6.40817 32.713 6.40817 32.6402V31.6059C6.40817 31.533 6.4375 31.5039 6.51082 31.5039H7.58134C7.65467 31.5039 7.68399 31.533 7.68399 31.6059V32.6402C7.68399 32.713 7.65467 32.7422 7.58134 32.7422H6.51082Z" fill="#36302B"/>
<path d="M10.6756 34.3442C10.6756 34.2713 10.7049 34.2422 10.7783 34.2422H12.0687C12.1421 34.2422 12.1714 34.2713 12.1714 34.3442V36.8352C12.1861 37.01 12.2594 37.1557 12.406 37.2577C12.538 37.3597 12.7433 37.4179 12.9926 37.4179H13.2419C13.3886 37.4179 13.4912 37.4616 13.5645 37.5636C13.6379 37.6656 13.6672 37.8258 13.6672 38.0443C13.6672 38.4814 13.5205 38.6853 13.2419 38.6853C12.978 38.6853 12.7433 38.6562 12.538 38.5834C12.3327 38.5251 12.1714 38.3794 12.0394 38.1463C11.9221 38.3648 11.7608 38.5105 11.5262 38.5834C11.3062 38.6416 10.9982 38.6853 10.6023 38.6853H9.50242C9.35578 38.6853 9.25312 38.6416 9.1798 38.5542C9.10648 38.4668 9.07715 38.3066 9.07715 38.0589C9.07715 37.8258 9.10648 37.651 9.1798 37.549C9.25312 37.4471 9.35578 37.4034 9.50242 37.4034H10.1623C10.3823 37.4034 10.529 37.3451 10.5876 37.214C10.6463 37.0829 10.6756 36.8644 10.6756 36.5439V34.3442ZM10.0157 40.8705C9.94237 40.8705 9.91304 40.8413 9.91304 40.7685V39.7342C9.91304 39.6614 9.94237 39.6322 10.0157 39.6322H11.0862C11.1595 39.6322 11.1889 39.6614 11.1889 39.7342V40.7685C11.1889 40.8413 11.1595 40.8705 11.0862 40.8705H10.0157ZM11.6435 40.8705C11.5701 40.8705 11.5408 40.8413 11.5408 40.7685V39.7342C11.5408 39.6614 11.5701 39.6322 11.6435 39.6322H12.714C12.7873 39.6322 12.8166 39.6614 12.8166 39.7342V40.7685C12.8166 40.8413 12.7873 40.8705 12.714 40.8705H11.6435Z" fill="#36302B"/>
<path d="M14.4442 34.344C14.4442 34.2712 14.4735 34.242 14.5468 34.242H15.8373C15.9106 34.242 15.94 34.2712 15.94 34.344V36.8351C15.9546 37.0099 16.0279 37.1556 16.1746 37.2575C16.3066 37.3595 16.5119 37.4178 16.7612 37.4178H17.0105C17.1571 37.4178 17.2598 37.4615 17.3331 37.5635C17.4064 37.6654 17.4358 37.8257 17.4358 38.0442C17.4358 38.4812 17.2891 38.6852 17.0105 38.6852C16.7465 38.6852 16.5119 38.656 16.3066 38.5832C16.1013 38.5249 15.94 38.3793 15.808 38.1462C15.6907 38.3647 15.5293 38.5104 15.2947 38.5832C15.0747 38.6415 14.7668 38.6852 14.3708 38.6852H13.271C13.1243 38.6852 13.0217 38.6415 12.9484 38.5541C12.875 38.4667 12.8457 38.3064 12.8457 38.0588C12.8457 37.8257 12.875 37.6509 12.9484 37.5489C13.0217 37.4469 13.1243 37.4032 13.271 37.4032H13.9309C14.1509 37.4032 14.2975 37.345 14.3562 37.2138C14.4148 37.0827 14.4442 36.8642 14.4442 36.5437V34.344ZM13.8282 33.164C13.7549 33.164 13.7256 33.1349 13.7256 33.0621V32.0278C13.7256 31.9549 13.7549 31.9258 13.8282 31.9258H14.8988C14.9721 31.9258 15.0014 31.9549 15.0014 32.0278V33.0621C15.0014 33.1349 14.9721 33.164 14.8988 33.164H13.8282ZM15.456 33.164C15.3827 33.164 15.3534 33.1349 15.3534 33.0621V32.0278C15.3534 31.9549 15.3827 31.9258 15.456 31.9258H16.5265C16.5999 31.9258 16.6292 31.9549 16.6292 32.0278V33.0621C16.6292 33.1349 16.5999 33.164 16.5265 33.164H15.456Z" fill="#36302B"/>
<path d="M23.4197 38.6999C23.1411 38.6999 22.9211 38.6416 22.7451 38.5397C22.5691 38.4377 22.4371 38.3066 22.3492 38.1318C22.2465 38.3503 22.0999 38.4959 21.8946 38.5834C21.6893 38.6562 21.4106 38.6999 21.0733 38.6999H20.6627C20.3841 38.6999 20.1641 38.6416 19.9881 38.5397C19.8122 38.4377 19.6802 38.3066 19.5775 38.1318C19.4749 38.3503 19.3282 38.5105 19.1229 38.5834C18.9176 38.6562 18.639 38.6999 18.287 38.6999H17.0112C16.8646 38.6999 16.7619 38.6562 16.6886 38.5834C16.6153 38.4959 16.5859 38.3503 16.5859 38.1172C16.5859 37.8695 16.6153 37.6947 16.6886 37.5928C16.7619 37.4908 16.8646 37.4325 17.0112 37.4325H17.7298C17.9351 37.4325 18.0671 37.3742 18.1257 37.2723C18.1844 37.1703 18.2137 36.9809 18.2137 36.7041V35.1162C18.2137 35.0434 18.243 35.0143 18.3164 35.0143H19.6215C19.6949 35.0143 19.7242 35.0434 19.7242 35.1162V36.8498C19.7242 37.0829 19.7975 37.2286 19.9442 37.3014C20.0908 37.3742 20.2374 37.4179 20.4134 37.4179C20.5454 37.4179 20.6627 37.4034 20.736 37.3742C20.824 37.3451 20.8827 37.3014 20.912 37.2431C20.9414 37.1849 20.9707 37.112 20.9853 37.01C21 36.9081 21 36.7915 21 36.6604V35.1017C21 35.0288 21.0293 34.9997 21.1027 34.9997H22.4078C22.4811 34.9997 22.5105 35.0288 22.5105 35.1017V36.8207C22.5105 37.0537 22.5838 37.214 22.7304 37.2868C22.8771 37.3597 23.0384 37.4034 23.229 37.4034C23.361 37.4034 23.4637 37.3888 23.537 37.3597C23.6103 37.3305 23.6543 37.2868 23.6983 37.2286C23.7276 37.1703 23.757 37.0975 23.757 36.9955C23.757 36.8935 23.7716 36.777 23.7716 36.6459V34.3442C23.7716 34.2713 23.801 34.2422 23.8743 34.2422H25.1794C25.2528 34.2422 25.2821 34.2713 25.2821 34.3442V36.8352C25.2968 37.01 25.3701 37.1557 25.5167 37.2577C25.6487 37.3597 25.854 37.4179 26.1033 37.4179H26.3526C26.4993 37.4179 26.6019 37.4616 26.6752 37.5636C26.7486 37.6656 26.7779 37.8258 26.7779 38.0444C26.7779 38.4814 26.6313 38.6853 26.3526 38.6853C26.0887 38.6853 25.854 38.6562 25.6487 38.5834C25.4434 38.5251 25.2821 38.3794 25.1501 38.1463C25.0475 38.3503 24.9008 38.4959 24.7102 38.5688C24.5195 38.6416 24.2996 38.6853 24.0503 38.6853H23.4197V38.6999Z" fill="#36302B"/>
<path d="M26.3081 38.7018C26.1614 38.7018 26.0588 38.6581 25.9855 38.5561C25.9121 38.4541 25.8828 38.2939 25.8828 38.0754C25.8828 37.8423 25.9121 37.682 25.9855 37.5655C26.0588 37.4635 26.1614 37.4053 26.3081 37.4053H28.9477C29.1237 37.4053 29.2557 37.3907 29.3583 37.3615C29.461 37.3324 29.549 37.2887 29.6076 37.2159C29.6663 37.143 29.7103 37.0556 29.7396 36.9391C29.769 36.8225 29.7836 36.6769 29.7836 36.4875C29.7836 36.3418 29.769 36.1961 29.725 36.065C29.6956 35.9339 29.6223 35.8028 29.549 35.7008C29.461 35.5843 29.3583 35.4969 29.2117 35.4386C29.065 35.3803 28.9037 35.3366 28.6984 35.3366C28.4638 35.3366 28.2732 35.3803 28.0972 35.4678C27.9212 35.5552 27.7599 35.6717 27.6132 35.8028C27.5693 35.8465 27.5106 35.8611 27.4666 35.8174L26.836 35.0599C26.7774 35.0016 26.7627 34.9433 26.8067 34.8996C27.056 34.6665 27.3346 34.4626 27.6572 34.3023C27.9799 34.1421 28.3758 34.0547 28.8597 34.0547C29.3144 34.0547 29.6956 34.1275 30.0183 34.2586C30.3409 34.3897 30.5902 34.5791 30.7955 34.7976C31.0008 35.0307 31.1328 35.2929 31.2208 35.5843C31.3087 35.8902 31.3527 36.2107 31.3527 36.5458C31.3527 36.9974 31.3087 37.347 31.2354 37.6238C31.1474 37.9006 31.0301 38.1191 30.8835 38.2793C30.7368 38.4396 30.5462 38.5415 30.3262 38.5998C30.1062 38.6581 29.8423 38.6872 29.5637 38.6872H26.3081V38.7018ZM28.2292 40.8432C28.1558 40.8432 28.1265 40.8141 28.1265 40.7412V39.7069C28.1265 39.6341 28.1558 39.605 28.2292 39.605H29.549C29.6223 39.605 29.6516 39.6341 29.6516 39.7069V40.7412C29.6516 40.8141 29.6223 40.8432 29.549 40.8432H28.2292Z" fill="#36302B"/>
<path d="M33.3322 40.8724C33.2589 40.8724 33.2295 40.8432 33.2295 40.7704V39.6924C33.2295 39.6195 33.2589 39.5904 33.3322 39.5904H34.564C34.7107 39.5904 34.8427 39.5758 34.96 39.5467C35.0773 39.5176 35.1799 39.4739 35.2533 39.4156C35.3266 39.3573 35.3852 39.2553 35.4292 39.1388C35.4732 39.0223 35.4879 38.8766 35.4879 38.6872H34.4614C33.7721 38.6872 33.2295 38.527 32.8629 38.1919C32.4963 37.8569 32.3057 37.2887 32.3057 36.4875C32.3057 36.0359 32.3643 35.6571 32.4963 35.3512C32.6283 35.0453 32.8043 34.7976 33.0242 34.5937C33.2442 34.4043 33.4935 34.2586 33.7721 34.1858C34.0508 34.0984 34.3441 34.0547 34.6373 34.0547C34.9453 34.0547 35.2533 34.0984 35.5319 34.1712C35.8105 34.2441 36.0598 34.3752 36.2798 34.5646C36.4998 34.7394 36.6611 34.987 36.7931 35.2929C36.9104 35.5989 36.9837 35.9776 36.9837 36.4292V37.4198H37.7023C37.9809 37.4198 38.1275 37.6383 38.1275 38.0608C38.1275 38.323 38.0982 38.4978 38.0249 38.5852C37.9516 38.6726 37.8489 38.7018 37.7023 38.7018H36.9837V38.9057C36.9837 39.5758 36.8077 40.0566 36.4704 40.3916C36.1331 40.7121 35.6052 40.8724 34.8866 40.8724H33.3322ZM34.652 35.3366C34.3734 35.3366 34.1534 35.4386 33.9921 35.628C33.8455 35.8319 33.7575 36.0942 33.7575 36.4292C33.7575 36.8225 33.8455 37.0702 34.0068 37.2013C34.1681 37.3324 34.388 37.3907 34.6667 37.3907H35.4879V36.3709C35.5026 35.6863 35.2239 35.3366 34.652 35.3366Z" fill="#36302B"/>
<path d="M38.5825 31.6059C38.5825 31.533 38.6118 31.5039 38.6852 31.5039H39.9903C40.0636 31.5039 40.093 31.533 40.093 31.6059V36.8502C40.1076 37.0396 40.181 37.1707 40.3129 37.2727C40.4449 37.3747 40.6502 37.4184 40.8995 37.4184H41.1488C41.2955 37.4184 41.3981 37.4621 41.4714 37.5641C41.5448 37.666 41.5741 37.8263 41.5741 38.0448C41.5741 38.4818 41.4275 38.6858 41.1488 38.6858C40.8849 38.6858 40.6502 38.6566 40.4449 38.5838C40.2396 38.5255 40.0783 38.3798 39.9463 38.1468C39.8437 38.3507 39.6824 38.4964 39.477 38.5692C39.2717 38.6421 38.9931 38.6858 38.6558 38.6858H37.7026C37.556 38.6858 37.4533 38.6566 37.38 38.6129C37.3067 38.5692 37.2773 38.4673 37.2773 38.3216C37.2773 38.2342 37.292 38.1468 37.3067 38.0302C37.3213 37.9282 37.3507 37.8263 37.38 37.7389C37.4093 37.6515 37.4533 37.5641 37.512 37.5058C37.5706 37.4475 37.6293 37.4038 37.7026 37.4038H38.0692C38.1866 37.4038 38.2892 37.3892 38.3625 37.3455C38.4359 37.3018 38.4799 37.2436 38.5238 37.1562C38.5532 37.0688 38.5825 36.9813 38.5825 36.8502C38.5825 36.7337 38.5972 36.588 38.5972 36.4423V31.6059H38.5825Z" fill="#36302B"/>
<path d="M41.1489 38.7014C41.0023 38.7014 40.8996 38.6723 40.8263 38.6286C40.753 38.5849 40.7236 38.4829 40.7236 38.3372C40.7236 38.2498 40.7383 38.1624 40.753 38.0459C40.7676 37.9439 40.797 37.8419 40.8263 37.7545C40.8556 37.6671 40.8996 37.5797 40.9583 37.5214C41.0169 37.4631 41.0756 37.4194 41.1489 37.4194H41.5155C41.6915 37.4194 41.8235 37.3757 41.9115 37.3029C41.9995 37.2155 42.0288 37.0698 42.0288 36.8659V31.6215C42.0288 31.5487 42.0581 31.5195 42.1314 31.5195H43.4366C43.5099 31.5195 43.5393 31.5487 43.5393 31.6215V37.3612C43.5393 37.8128 43.4366 38.1624 43.246 38.3663C43.0553 38.5849 42.7327 38.6868 42.2928 38.6868H41.1489V38.7014Z" fill="#36302B"/>
<path d="M46.3259 38.5838C46.3259 38.6566 46.2965 38.6858 46.2232 38.6858H44.9327C44.8594 38.6858 44.8301 38.6566 44.8301 38.5838V31.6059C44.8301 31.533 44.8594 31.5039 44.9327 31.5039H46.2232C46.2965 31.5039 46.3259 31.533 46.3259 31.6059V38.5838Z" fill="#36302B"/>
<path d="M56.429 37.2892C56.517 37.2018 56.5463 37.0561 56.5463 36.8522V34.3465C56.5463 34.2737 56.5756 34.2445 56.649 34.2445H57.9541C58.0274 34.2445 58.0568 34.2737 58.0568 34.3465V37.362C58.0568 37.8136 57.9541 38.1632 57.7635 38.3672C57.5728 38.5857 57.2502 38.6877 56.7809 38.6877H51.2524C50.7978 38.6877 50.4898 38.5857 50.2992 38.3672C50.1085 38.1487 50.0059 37.8136 50.0059 37.362V35.0312C50.0059 34.9584 50.0352 34.9292 50.1085 34.9292H51.4137C51.487 34.9292 51.5163 34.9584 51.5163 35.0312V36.8667C51.5163 37.0852 51.5603 37.2309 51.6336 37.3037C51.7216 37.3912 51.8389 37.4203 52.0296 37.4203H56.0184C56.209 37.4203 56.341 37.3766 56.429 37.2892ZM52.6748 33.7929C52.6015 33.7929 52.5722 33.7638 52.5722 33.691V32.6567C52.5722 32.5838 52.6015 32.5547 52.6748 32.5547H53.7454C53.8187 32.5547 53.848 32.5838 53.848 32.6567V33.691C53.848 33.7638 53.8187 33.7929 53.7454 33.7929H52.6748ZM54.3173 33.7929C54.244 33.7929 54.2146 33.7638 54.2146 33.691V32.6567C54.2146 32.5838 54.244 32.5547 54.3173 32.5547H55.3878C55.4611 32.5547 55.4905 32.5838 55.4905 32.6567V33.691C55.4905 33.7638 55.4611 33.7929 55.3878 33.7929H54.3173Z" fill="#36302B"/>
<path d="M59.2305 31.6059C59.2305 31.533 59.2598 31.5039 59.3331 31.5039H60.6236C60.6969 31.5039 60.7263 31.533 60.7263 31.6059V36.8502C60.7263 37.0688 60.7703 37.2144 60.8436 37.2873C60.9316 37.3747 61.0489 37.4038 61.2395 37.4038H61.5328C61.6795 37.4038 61.7821 37.4621 61.8554 37.5641C61.9288 37.666 61.9581 37.8408 61.9581 38.0739C61.9581 38.3216 61.9288 38.4964 61.8554 38.5692C61.7821 38.6421 61.6795 38.6858 61.5328 38.6858H60.477C60.0224 38.6858 59.7144 38.5838 59.5238 38.3653C59.3331 38.1468 59.2305 37.8117 59.2305 37.3601V31.6059Z" fill="#36302B"/>
<path d="M64.8469 38.7718C64.4656 38.7718 64.1283 38.7281 63.8057 38.6261C63.4831 38.5241 63.2191 38.3639 63.0138 38.1162C62.9112 38.2619 62.7939 38.3639 62.6619 38.4367C62.5299 38.5095 62.3979 38.5678 62.2659 38.6115C62.1339 38.6552 62.002 38.6698 61.87 38.6844C61.738 38.6844 61.6353 38.6989 61.5327 38.6989C61.3861 38.6989 61.2834 38.6552 61.2101 38.5678C61.1367 38.4804 61.1074 38.3202 61.1074 38.0871C61.1074 37.8394 61.1367 37.6646 61.2101 37.5772C61.2834 37.4752 61.3861 37.4315 61.5327 37.4315H61.8407C62.002 37.4315 62.1486 37.3587 62.2806 37.2276C62.4126 37.0965 62.4859 36.8488 62.5006 36.4701V36.2516C62.5006 35.8291 62.5592 35.4795 62.6912 35.2027C62.8232 34.9259 62.9992 34.6928 63.2191 34.5326C63.4391 34.3578 63.6884 34.2412 63.967 34.1684C64.2457 34.0955 64.539 34.0664 64.8469 34.0664C65.1549 34.0664 65.4628 34.1101 65.7415 34.1829C66.0201 34.2558 66.2694 34.3869 66.4894 34.5763C66.7093 34.7657 66.8853 34.9987 67.0026 35.3047C67.1346 35.6106 67.1933 36.0039 67.1933 36.4701C67.1933 36.9071 67.1346 37.2567 67.0173 37.5626C66.9 37.854 66.724 38.1017 66.5187 38.2765C66.3134 38.4513 66.0641 38.5824 65.7708 38.6698C65.4922 38.7281 65.1842 38.7718 64.8469 38.7718ZM64.8469 35.3338C64.2603 35.3338 63.967 35.6834 63.967 36.3972C63.967 36.8051 64.0404 37.0819 64.187 37.2422C64.3337 37.4024 64.5536 37.4752 64.8469 37.4752C65.1402 37.4752 65.3602 37.4024 65.5068 37.2422C65.6535 37.0819 65.7268 36.8051 65.7268 36.3972C65.7121 35.698 65.4335 35.3338 64.8469 35.3338Z" fill="#36302B"/>
<path d="M70.0969 37.418C70.2728 37.418 70.4195 37.4035 70.5221 37.3743C70.6248 37.3452 70.7128 37.3161 70.7568 37.2578C70.8154 37.1995 70.8448 37.1267 70.8594 37.0393C70.8741 36.9519 70.8887 36.8353 70.8887 36.7042V36.1361C70.8887 35.8593 70.8154 35.6553 70.6541 35.5388C70.4928 35.4223 70.2582 35.3494 69.9355 35.3494H68.7037C68.6304 35.3494 68.6011 35.3203 68.6011 35.2474V34.184C68.6011 34.1112 68.6304 34.082 68.7037 34.082H70.3902C71.0501 34.082 71.5633 34.2277 71.9153 34.5045C72.2672 34.7813 72.4579 35.2766 72.4579 35.9758V36.8499C72.4725 37.0247 72.5459 37.1704 72.6925 37.2723C72.8245 37.3743 73.0298 37.4326 73.2791 37.4326H73.5137C73.6604 37.4326 73.763 37.4763 73.8364 37.5783C73.9097 37.6802 73.939 37.8405 73.939 38.059C73.939 38.496 73.7924 38.7 73.5137 38.7C73.2204 38.7 72.9711 38.6563 72.7512 38.5834C72.5312 38.5106 72.3552 38.3504 72.2232 38.1027C72.0913 38.3358 71.9153 38.4815 71.6953 38.5689C71.4753 38.6563 71.1967 38.7 70.8594 38.7H68.2784C68.2051 38.7 68.1758 38.6708 68.1758 38.598V37.5346C68.1758 37.4617 68.2051 37.4326 68.2784 37.4326H70.0969V37.418Z" fill="#36302B"/>
<path d="M73.9688 34.9132C74.2181 34.6656 74.4967 34.4616 74.8193 34.3014C75.1419 34.1411 75.5232 34.0683 75.9778 34.0683C76.4471 34.0683 76.843 34.1411 77.1657 34.2722C77.4883 34.4033 77.7523 34.5927 77.9576 34.8258C78.1629 35.0589 78.3095 35.3357 78.3975 35.6562C78.4855 35.9767 78.5295 36.3263 78.5295 36.705V36.8798C78.5441 37.0547 78.6321 37.1858 78.7641 37.2877C78.8961 37.3897 79.0867 37.4334 79.336 37.4334H79.5853C79.732 37.4334 79.8346 37.4771 79.908 37.5791C79.9813 37.6811 80.0106 37.8413 80.0106 38.0598C80.0106 38.4969 79.864 38.7008 79.5853 38.7008C79.2921 38.7008 79.0281 38.6571 78.8081 38.5843C78.5881 38.5114 78.4122 38.322 78.2655 38.0598C78.1189 38.3075 77.9282 38.4823 77.6643 38.5697C77.4003 38.6571 77.0923 38.7008 76.7404 38.7008H73.4995C73.3529 38.7008 73.2502 38.6571 73.1769 38.5551C73.1035 38.4532 73.0742 38.2929 73.0742 38.0744C73.0742 37.8559 73.1035 37.6811 73.1769 37.5791C73.2355 37.4771 73.3528 37.4188 73.5142 37.4188H76.1538C76.3298 37.4188 76.4618 37.4043 76.5644 37.3751C76.6671 37.346 76.7551 37.3023 76.8137 37.244C76.8724 37.1858 76.9164 37.0984 76.9457 36.9964C76.975 36.8944 76.9897 36.7633 76.9897 36.6031C76.9897 36.4282 76.975 36.268 76.931 36.1078C76.9017 35.9475 76.8284 35.8164 76.7551 35.6999C76.6671 35.5833 76.5644 35.4959 76.4178 35.4231C76.2711 35.3502 76.1098 35.3211 75.9045 35.3211C75.6699 35.3211 75.4792 35.3648 75.3033 35.4522C75.1273 35.5396 74.966 35.6562 74.8193 35.7873C74.7753 35.831 74.7167 35.8455 74.6727 35.8018L74.0421 35.0443C73.9394 35.0006 73.9394 34.9423 73.9688 34.9132ZM75.3766 33.1797C75.3033 33.1797 75.2739 33.1505 75.2739 33.0777V32.0434C75.2739 31.9705 75.3033 31.9414 75.3766 31.9414H76.6964C76.7697 31.9414 76.7991 31.9705 76.7991 32.0434V33.0777C76.7991 33.1505 76.7697 33.1797 76.6964 33.1797H75.3766Z" fill="#36302B"/>
<path d="M79.5854 38.7014C79.4388 38.7014 79.3361 38.6723 79.2628 38.6286C79.1895 38.5849 79.1602 38.4829 79.1602 38.3372C79.1602 38.2498 79.1748 38.1624 79.1895 38.0459C79.2042 37.9293 79.2335 37.8419 79.2628 37.7545C79.2921 37.6671 79.3361 37.5797 79.3948 37.5214C79.4535 37.4631 79.5121 37.4194 79.5854 37.4194H79.9521C80.128 37.4194 80.26 37.3757 80.348 37.3029C80.436 37.2155 80.4653 37.0698 80.4653 36.8659V31.6215C80.4653 31.5487 80.4946 31.5195 80.568 31.5195H81.8731C81.9464 31.5195 81.9758 31.5487 81.9758 31.6215V37.3612C81.9758 37.8128 81.8731 38.1624 81.6825 38.3663C81.4918 38.5849 81.1692 38.6868 80.7293 38.6868H79.5854V38.7014Z" fill="#36302B"/>
<path d="M84.7614 38.5838C84.7614 38.6566 84.7321 38.6858 84.6588 38.6858H83.3683C83.295 38.6858 83.2656 38.6566 83.2656 38.5838V31.6059C83.2656 31.533 83.295 31.5039 83.3683 31.5039H84.6588C84.7321 31.5039 84.7614 31.533 84.7614 31.6059V38.5838Z" fill="#36302B"/>
<path d="M86.8879 40.8695C86.8145 40.8695 86.7852 40.8404 86.7852 40.7675V39.6895C86.7852 39.6167 86.8145 39.5876 86.8879 39.5876H88.1197C88.2663 39.5876 88.3837 39.573 88.501 39.5584C88.6183 39.5439 88.7063 39.5001 88.7943 39.4419C88.8823 39.3836 88.9409 39.2816 88.9849 39.1651C89.0289 39.0485 89.0582 38.8883 89.0582 38.6989H88.6036C88.1784 38.6989 87.7971 38.6698 87.4598 38.6261C87.1225 38.5824 86.8292 38.4658 86.5946 38.3202C86.3599 38.1599 86.1693 37.9414 86.052 37.6501C85.9346 37.3587 85.8613 36.9799 85.8613 36.4992C85.8613 36.0476 85.92 35.6689 86.052 35.3629C86.1839 35.057 86.3599 34.8094 86.5799 34.6054C86.7999 34.416 87.0492 34.2704 87.3278 34.1975C87.6064 34.1247 87.8997 34.0664 88.193 34.0664C88.501 34.0664 88.8089 34.1101 89.0876 34.1829C89.3662 34.2558 89.6155 34.3869 89.8355 34.5763C90.0554 34.7511 90.2167 34.9987 90.3487 35.3047C90.4807 35.6106 90.5394 35.9893 90.5394 36.4409V38.9029C90.5394 39.573 90.3634 40.0537 90.0261 40.3888C89.6888 40.7093 89.1609 40.8695 88.4423 40.8695H86.8879ZM88.2077 35.3338C87.9144 35.3338 87.6944 35.4358 87.5478 35.6251C87.4011 35.8291 87.3278 36.0913 87.3278 36.4264C87.3278 36.8197 87.4158 37.0673 87.5771 37.1985C87.7384 37.3296 87.9584 37.3878 88.237 37.3878H89.0582V36.3681C89.0436 35.6834 88.7649 35.3338 88.2077 35.3338Z" fill="#36302B"/>
<path d="M99.5138 38.4673C99.5138 38.9188 99.4405 39.2976 99.3085 39.6035C99.1765 39.924 98.9859 40.1717 98.7366 40.3756C98.5019 40.5796 98.2087 40.7252 97.886 40.8272C97.5487 40.9292 97.1968 40.9729 96.8302 40.9729C96.4636 40.9729 96.1116 40.9292 95.7743 40.8272C95.437 40.7252 95.1584 40.5796 94.9091 40.3756C94.6598 40.1717 94.4692 39.9094 94.3225 39.589C94.1759 39.2685 94.1025 38.8897 94.1025 38.4381C94.1025 38.0885 94.1612 37.7243 94.2638 37.3601C94.3665 36.9959 94.5132 36.6609 94.6891 36.3404C94.7185 36.2967 94.7771 36.2821 94.8504 36.3112L95.9943 36.6754C96.0236 36.69 96.0529 36.7046 96.0529 36.7337C96.0529 36.7628 96.0529 36.792 96.0383 36.8065C95.9356 37.0105 95.8476 37.229 95.7596 37.4767C95.6717 37.7243 95.6277 38.0011 95.6277 38.307C95.6277 38.5547 95.657 38.7586 95.7303 38.9334C95.8036 39.1082 95.8916 39.2393 96.0089 39.3413C96.1263 39.4433 96.2583 39.5161 96.4049 39.5744C96.5515 39.6181 96.6982 39.6472 96.8448 39.6472C97.2115 39.6472 97.4901 39.5453 97.6954 39.3413C97.9007 39.1374 98.0033 38.8169 98.0033 38.3944V31.6059C98.0033 31.533 98.0327 31.5039 98.106 31.5039H99.3965C99.4698 31.5039 99.4991 31.533 99.4991 31.6059V36.8502C99.5138 37.0251 99.5871 37.1707 99.7338 37.2727C99.8658 37.3747 100.071 37.4329 100.32 37.4329H100.57C100.716 37.4329 100.819 37.4766 100.892 37.5786C100.966 37.6806 100.995 37.8408 100.995 38.0594C100.995 38.4964 100.848 38.7003 100.57 38.7003C100.35 38.7003 100.144 38.6858 99.9684 38.6421C99.7924 38.5984 99.6458 38.511 99.5138 38.3653V38.4673Z" fill="#36302B"/>
<path d="M103.561 34.0527C103.928 34.0527 104.251 34.0964 104.544 34.1692C104.837 34.2566 105.087 34.3732 105.292 34.5188C105.497 34.6645 105.658 34.8539 105.761 35.087C105.878 35.32 105.922 35.5677 105.922 35.8736C105.922 36.2087 105.849 36.5 105.688 36.7622C105.526 37.0245 105.336 37.243 105.087 37.4178C105.145 37.4178 105.204 37.4032 105.262 37.4032C105.321 37.4032 105.38 37.4032 105.438 37.4032H106.524C106.67 37.4032 106.773 37.4469 106.846 37.5343C106.92 37.6217 106.949 37.7966 106.949 38.0442C106.949 38.2773 106.92 38.4521 106.846 38.5541C106.773 38.656 106.67 38.6997 106.524 38.6997H104.94C104.691 38.6997 104.441 38.6852 104.221 38.6706C103.987 38.656 103.781 38.5686 103.576 38.4521C103.341 38.5832 103.092 38.656 102.828 38.6706C102.564 38.6852 102.33 38.6997 102.124 38.6997H100.584C100.438 38.6997 100.32 38.656 100.262 38.5541C100.189 38.4521 100.159 38.2919 100.159 38.0442C100.159 37.8257 100.189 37.6509 100.262 37.5635C100.335 37.4615 100.438 37.4178 100.584 37.4178H102.036C101.802 37.2575 101.596 37.039 101.45 36.7768C101.303 36.5146 101.215 36.2087 101.215 35.8882C101.215 35.5968 101.274 35.3346 101.376 35.1015C101.494 34.883 101.64 34.6936 101.846 34.5334C102.051 34.3877 102.3 34.2712 102.594 34.1838C102.872 34.0964 103.209 34.0527 103.561 34.0527ZM102.242 33.164C102.168 33.164 102.139 33.1349 102.139 33.0621V32.0278C102.139 31.9549 102.168 31.9258 102.242 31.9258H103.312C103.385 31.9258 103.415 31.9549 103.415 32.0278V33.0621C103.415 33.1349 103.385 33.164 103.312 33.164H102.242ZM103.561 35.1015C103.341 35.1015 103.136 35.1744 102.96 35.32C102.784 35.4657 102.696 35.6842 102.696 35.9902C102.696 36.3107 102.784 36.5729 102.945 36.7622C103.121 36.9516 103.312 37.1119 103.547 37.2284C103.781 37.1119 103.987 36.9662 104.148 36.7622C104.309 36.5583 104.397 36.3107 104.397 35.9902C104.397 35.6842 104.309 35.4512 104.133 35.32C103.987 35.1744 103.781 35.1015 103.561 35.1015ZM103.869 33.164C103.796 33.164 103.767 33.1349 103.767 33.0621V32.0278C103.767 31.9549 103.796 31.9258 103.869 31.9258H104.94C105.013 31.9258 105.043 31.9549 105.043 32.0278V33.0621C105.043 33.1349 105.013 33.164 104.94 33.164H103.869Z" fill="#36302B"/>
<path d="M108.812 38.1607C108.694 38.3793 108.518 38.5249 108.313 38.5832C108.093 38.656 107.8 38.6852 107.418 38.6852H106.568C106.421 38.6852 106.319 38.656 106.245 38.6123C106.172 38.5686 106.143 38.4667 106.143 38.3064C106.143 38.219 106.143 38.117 106.157 38.0151C106.172 37.9131 106.201 37.8111 106.231 37.7237C106.26 37.6363 106.319 37.5635 106.363 37.4906C106.421 37.4324 106.495 37.4032 106.583 37.4032H106.934C107.154 37.4032 107.301 37.345 107.36 37.2138C107.418 37.0973 107.448 36.8642 107.448 36.5583V34.3294C107.448 34.2712 107.506 34.242 107.609 34.2275C107.712 34.2129 107.8 34.2129 107.888 34.2129H108.87C108.944 34.2129 108.973 34.242 108.973 34.3149V36.806C108.988 36.9808 109.061 37.1264 109.208 37.2284C109.339 37.3304 109.545 37.3887 109.794 37.3887H110.043C110.19 37.3887 110.293 37.4324 110.366 37.5343C110.439 37.6363 110.469 37.7966 110.469 38.0151C110.469 38.4521 110.322 38.656 110.043 38.656C109.779 38.656 109.545 38.6269 109.339 38.5541C109.12 38.5395 108.958 38.3938 108.812 38.1607ZM107.55 33.164C107.477 33.164 107.448 33.1349 107.448 33.0621V32.0278C107.448 31.9549 107.477 31.9258 107.55 31.9258H108.87C108.944 31.9258 108.973 31.9549 108.973 32.0278V33.0621C108.973 33.1349 108.944 33.164 108.87 33.164H107.55Z" fill="#36302B"/>
<path d="M109.985 38.7014C109.838 38.7014 109.736 38.6723 109.662 38.6286C109.589 38.5849 109.56 38.4829 109.56 38.3372C109.56 38.2498 109.574 38.1624 109.589 38.0459C109.604 37.9293 109.633 37.8419 109.662 37.7545C109.692 37.6671 109.736 37.5797 109.794 37.5214C109.853 37.4631 109.912 37.4194 109.985 37.4194H110.351C110.527 37.4194 110.659 37.3757 110.747 37.3029C110.835 37.2155 110.865 37.0698 110.865 36.8659V31.6215C110.865 31.5487 110.894 31.5195 110.967 31.5195H112.273C112.346 31.5195 112.375 31.5487 112.375 31.6215V37.3612C112.375 37.8128 112.273 38.1624 112.082 38.3663C111.891 38.5849 111.569 38.6868 111.129 38.6868H109.985V38.7014Z" fill="#36302B"/>
<path d="M115.162 38.5838C115.162 38.6566 115.132 38.6858 115.059 38.6858H113.769C113.695 38.6858 113.666 38.6566 113.666 38.5838V31.6059C113.666 31.533 113.695 31.5039 113.769 31.5039H115.059C115.132 31.5039 115.162 31.533 115.162 31.6059V38.5838Z" fill="#36302B"/>
<path d="M121.116 38.7726C120.779 38.7726 120.471 38.7289 120.177 38.656C119.884 38.5832 119.635 38.4521 119.429 38.2627C119.224 38.0879 119.048 37.8403 118.931 37.5489C118.814 37.2575 118.755 36.8934 118.755 36.4563C118.755 35.9902 118.814 35.6114 118.946 35.2909C119.078 34.985 119.239 34.7373 119.459 34.5625C119.679 34.3732 119.928 34.242 120.207 34.1692C120.485 34.0964 120.793 34.0527 121.101 34.0527C121.409 34.0527 121.717 34.0964 121.996 34.1692C122.274 34.242 122.524 34.3732 122.744 34.5625C122.964 34.7519 123.14 34.985 123.257 35.2909C123.389 35.5968 123.448 35.9902 123.448 36.4563C123.448 36.8934 123.389 37.243 123.272 37.5489C123.154 37.8403 122.993 38.0879 122.773 38.2627C122.568 38.4375 122.318 38.5686 122.025 38.656C121.761 38.7289 121.439 38.7726 121.116 38.7726ZM119.752 33.164C119.679 33.164 119.649 33.1349 119.649 33.0621V32.0278C119.649 31.9549 119.679 31.9258 119.752 31.9258H120.823C120.896 31.9258 120.925 31.9549 120.925 32.0278V33.0621C120.925 33.1349 120.896 33.164 120.823 33.164H119.752ZM121.116 35.3346C120.529 35.3346 120.236 35.6842 120.236 36.3981C120.236 36.806 120.309 37.0827 120.456 37.243C120.603 37.4032 120.823 37.4761 121.101 37.4761C121.395 37.4761 121.614 37.4032 121.761 37.243C121.908 37.0827 121.981 36.806 121.981 36.3981C121.981 35.6988 121.688 35.3346 121.116 35.3346ZM121.395 33.164C121.321 33.164 121.292 33.1349 121.292 33.0621V32.0278C121.292 31.9549 121.321 31.9258 121.395 31.9258H122.465C122.538 31.9258 122.568 31.9549 122.568 32.0278V33.0621C122.568 33.1349 122.538 33.164 122.465 33.164H121.395Z" fill="#36302B"/>
<path d="M124.107 40.8715C124.033 40.8715 124.004 40.8424 124.004 40.7696V39.6916C124.004 39.6187 124.033 39.5896 124.107 39.5896H124.341C124.634 39.5896 124.84 39.5167 124.957 39.3711C125.074 39.2254 125.148 38.9923 125.148 38.701V34.3598C125.148 34.2869 125.177 34.2578 125.25 34.2578H126.556C126.629 34.2578 126.658 34.2869 126.658 34.3598V38.7447C126.658 39.473 126.482 40.012 126.145 40.3471C125.808 40.6967 125.28 40.8715 124.59 40.8715H124.107Z" fill="#36302B"/>
<path d="M129.401 38.5838C129.401 38.6566 129.372 38.6858 129.298 38.6858H128.008C127.935 38.6858 127.905 38.6566 127.905 38.5838V31.6059C127.905 31.533 127.935 31.5039 128.008 31.5039H129.298C129.372 31.5039 129.401 31.533 129.401 31.6059V38.5838Z" fill="#36302B"/>
<path d="M130.178 40.8703C130.105 40.8703 130.075 40.8412 130.075 40.7684V39.6904C130.075 39.6175 130.105 39.5884 130.178 39.5884H130.412C130.706 39.5884 130.911 39.5155 131.028 39.3699C131.146 39.2242 131.219 38.9911 131.219 38.6997V34.3586C131.219 34.2857 131.248 34.2566 131.322 34.2566H132.627C132.7 34.2566 132.73 34.2857 132.73 34.3586V38.7435C132.73 39.4718 132.554 40.0108 132.216 40.3459C131.879 40.6955 131.351 40.8703 130.662 40.8703H130.178ZM131.307 33.164C131.234 33.164 131.204 33.1349 131.204 33.0621V32.0278C131.204 31.9549 131.234 31.9258 131.307 31.9258H132.627C132.7 31.9258 132.73 31.9549 132.73 32.0278V33.0621C132.73 33.1349 132.7 33.164 132.627 33.164H131.307Z" fill="#36302B"/>
<path d="M134.827 40.8695C134.754 40.8695 134.725 40.8404 134.725 40.7675V39.6895C134.725 39.6167 134.754 39.5876 134.827 39.5876H136.059C136.206 39.5876 136.323 39.573 136.44 39.5584C136.558 39.5439 136.646 39.5001 136.734 39.4419C136.822 39.3836 136.88 39.2816 136.924 39.1651C136.968 39.0485 136.998 38.8883 136.998 38.6989H136.543C136.118 38.6989 135.737 38.6698 135.399 38.6261C135.062 38.5824 134.769 38.4658 134.534 38.3202C134.299 38.1599 134.109 37.9414 133.991 37.6501C133.874 37.3587 133.801 36.9799 133.801 36.4992C133.801 36.0476 133.859 35.6689 133.991 35.3629C134.123 35.057 134.299 34.8094 134.519 34.6054C134.739 34.416 134.989 34.2704 135.267 34.1975C135.546 34.1247 135.839 34.0664 136.132 34.0664C136.44 34.0664 136.748 34.1101 137.027 34.1829C137.306 34.2558 137.555 34.3869 137.775 34.5763C137.995 34.7511 138.156 34.9987 138.288 35.3047C138.42 35.6106 138.479 35.9893 138.479 36.4409V38.9029C138.479 39.573 138.303 40.0537 137.966 40.3888C137.628 40.7093 137.1 40.8695 136.382 40.8695H134.827ZM136.147 35.3338C135.854 35.3338 135.634 35.4358 135.487 35.6251C135.341 35.8291 135.267 36.0913 135.267 36.4264C135.267 36.8197 135.355 37.0673 135.517 37.1985C135.678 37.3296 135.898 37.3878 136.176 37.3878H136.998V36.3681C136.998 35.6834 136.719 35.3338 136.147 35.3338Z" fill="#36302B"/>
<path d="M3.8418 43.5036C3.8418 43.4599 3.85646 43.4453 3.90046 43.4453H4.66302C4.72168 43.4453 4.75101 43.4599 4.76567 43.5036L5.88019 45.9947H5.90952L6.9947 43.5036C7.00937 43.4599 7.05336 43.4453 7.09736 43.4453H7.84526C7.88925 43.4453 7.90392 43.4599 7.90392 43.5036V47.7282C7.90392 47.7719 7.88925 47.7865 7.84526 47.7865H7.11202C7.06803 47.7865 7.05336 47.7719 7.05336 47.7282V45.2663H7.0387L6.23214 47.1164C6.20281 47.1746 6.15882 47.2038 6.11482 47.2038H5.67488C5.61622 47.2038 5.57223 47.1746 5.55757 47.1164L4.75101 45.2808H4.72168V47.7428C4.72168 47.7865 4.70701 47.801 4.66302 47.801H3.92978C3.88579 47.801 3.87113 47.7865 3.87113 47.7428V43.5036H3.8418Z" fill="#36302B"/>
<path d="M9.12116 44.2028C9.07716 44.2028 9.0625 44.1883 9.0625 44.1446V43.5036C9.0625 43.4599 9.07716 43.4453 9.12116 43.4453H9.89839C9.94238 43.4453 9.95705 43.4599 9.95705 43.5036V44.1446C9.95705 44.1883 9.94238 44.2028 9.89839 44.2028H9.12116ZM9.12116 47.801C9.07716 47.801 9.0625 47.7865 9.0625 47.7428V44.771C9.0625 44.7273 9.07716 44.7127 9.12116 44.7127H9.89839C9.94238 44.7127 9.95705 44.7273 9.95705 44.771V47.7428C9.95705 47.7865 9.94238 47.801 9.89839 47.801H9.12116Z" fill="#36302B"/>
<path d="M13.0217 47.8008C12.9777 47.8008 12.963 47.7862 12.963 47.7425V45.9507C12.963 45.7758 12.919 45.6447 12.8457 45.5428C12.7724 45.4408 12.6404 45.3825 12.4791 45.3825C12.3178 45.3825 12.2005 45.4408 12.1125 45.5428C12.0245 45.6447 11.9805 45.7758 11.9805 45.9507V47.7279C11.9805 47.7716 11.9658 47.7862 11.9218 47.7862H11.1446C11.1006 47.7862 11.0859 47.7716 11.0859 47.7279V44.7561C11.0859 44.7124 11.1006 44.6978 11.1446 44.6978H11.9218C11.9658 44.6978 11.9805 44.7124 11.9805 44.7561V44.9746C12.0538 44.8726 12.1565 44.7998 12.2884 44.727C12.4204 44.6541 12.5817 44.625 12.787 44.625C12.963 44.625 13.1097 44.6541 13.2416 44.7124C13.3736 44.7707 13.4909 44.8435 13.5789 44.9455C13.6669 45.0475 13.7402 45.164 13.7842 45.3097C13.8282 45.4554 13.8576 45.601 13.8576 45.7758V47.7279C13.8576 47.7716 13.8429 47.7862 13.7989 47.7862H13.0217V47.8008Z" fill="#36302B"/>
<path d="M15.0167 44.2028C14.9727 44.2028 14.958 44.1883 14.958 44.1446V43.5036C14.958 43.4599 14.9727 43.4453 15.0167 43.4453H15.7939C15.8379 43.4453 15.8526 43.4599 15.8526 43.5036V44.1446C15.8526 44.1883 15.8379 44.2028 15.7939 44.2028H15.0167ZM15.0167 47.801C14.9727 47.801 14.958 47.7865 14.958 47.7428V44.771C14.958 44.7273 14.9727 44.7127 15.0167 44.7127H15.7939C15.8379 44.7127 15.8526 44.7273 15.8526 44.771V47.7428C15.8526 47.7865 15.8379 47.801 15.7939 47.801H15.0167Z" fill="#36302B"/>
<path d="M18.1984 47.8736C17.8757 47.8736 17.5971 47.8299 17.3625 47.7279C17.1278 47.6259 16.9372 47.524 16.7906 47.3929C16.7612 47.3637 16.7612 47.3346 16.7906 47.3055L17.2158 46.8393C17.2452 46.8102 17.2745 46.8102 17.3038 46.8393C17.4358 46.9413 17.5971 47.0287 17.7584 47.0869C17.9197 47.1452 18.0957 47.1743 18.257 47.1743C18.4183 47.1743 18.5356 47.1452 18.6236 47.0869C18.697 47.0287 18.741 46.9558 18.741 46.8684C18.741 46.7956 18.7116 46.7373 18.653 46.6936C18.5943 46.6499 18.477 46.6208 18.301 46.6062L17.9491 46.5625C17.6118 46.5334 17.3625 46.4314 17.1865 46.2711C17.0105 46.1109 16.9225 45.8924 16.9225 45.6156C16.9225 45.3097 17.0399 45.062 17.2598 44.8872C17.4798 44.7124 17.8024 44.625 18.213 44.625C18.477 44.625 18.7263 44.6541 18.9316 44.727C19.1516 44.7998 19.3275 44.8872 19.4742 45.0038C19.5035 45.0329 19.5035 45.062 19.4742 45.1057L19.1076 45.5428C19.0782 45.5719 19.0489 45.5719 19.0196 45.5573C18.9169 45.4845 18.7849 45.4262 18.6383 45.3825C18.4917 45.3388 18.3303 45.3097 18.169 45.3097C18.0371 45.3097 17.9344 45.3388 17.8757 45.3825C17.8171 45.4262 17.7731 45.4845 17.7731 45.5719C17.7731 45.6447 17.8024 45.703 17.8611 45.7467C17.9197 45.7904 18.037 45.8196 18.213 45.8341L18.5503 45.8778C18.9169 45.907 19.1809 46.0089 19.3422 46.1837C19.5035 46.344 19.5915 46.5625 19.5915 46.8247C19.5915 47.1452 19.4595 47.4074 19.2249 47.5968C18.9903 47.7862 18.6383 47.8736 18.1984 47.8736Z" fill="#36302B"/>
<path d="M21.5864 47.8329C21.2198 47.8329 20.9705 47.7455 20.8238 47.5852C20.6772 47.425 20.6038 47.1627 20.6038 46.7985V45.3855C20.6038 45.3564 20.5892 45.3418 20.5598 45.3418H20.3692C20.3252 45.3418 20.3105 45.3272 20.3105 45.2835V44.7445C20.3105 44.7008 20.3252 44.6862 20.3692 44.6862H20.5598C20.5892 44.6862 20.6038 44.6717 20.6038 44.6425V43.8122C20.6038 43.7685 20.6185 43.7539 20.6625 43.7539H21.4251C21.4691 43.7539 21.4837 43.7685 21.4837 43.8122V44.6425C21.4837 44.6717 21.4984 44.6862 21.5277 44.6862H21.9237C21.9677 44.6862 21.9823 44.7008 21.9823 44.7445V45.2835C21.9823 45.3272 21.9677 45.3418 21.9237 45.3418H21.5277C21.4984 45.3418 21.4837 45.3564 21.4837 45.3855V46.7548C21.4837 46.8714 21.4984 46.9442 21.5424 47.0025C21.5864 47.0462 21.6597 47.0753 21.7624 47.0753H21.9237C21.9677 47.0753 21.9823 47.0899 21.9823 47.1336V47.7746C21.9823 47.8183 21.9677 47.8329 21.9237 47.8329H21.5864Z" fill="#36302B"/>
<path d="M23.0382 47.8018C22.9942 47.8018 22.9795 47.7872 22.9795 47.7435V44.7717C22.9795 44.728 22.9942 44.7135 23.0382 44.7135H23.8154C23.8594 44.7135 23.874 44.728 23.874 44.7717V45.034C23.9474 44.9028 24.05 44.8154 24.1967 44.7426C24.3286 44.6698 24.5046 44.6406 24.6953 44.6406C24.7979 44.6406 24.9006 44.6552 24.9886 44.6843C25.0765 44.7135 25.1645 44.7572 25.2379 44.8154C25.2672 44.8446 25.2672 44.8737 25.2525 44.9028L24.8859 45.5584C24.8712 45.5875 24.8272 45.5875 24.7979 45.573C24.6366 45.471 24.49 45.4273 24.3433 45.4273C24.182 45.4418 24.05 45.5001 23.9767 45.6167C23.9034 45.7332 23.8594 45.8934 23.8594 46.0974V47.729C23.8594 47.7727 23.8447 47.7872 23.8007 47.7872H23.0382V47.8018Z" fill="#36302B"/>
<path d="M26.2197 48.954C26.1757 48.954 26.1611 48.9395 26.1611 48.8958V48.2694C26.1611 48.2257 26.1757 48.2111 26.2197 48.2111H26.3517C26.469 48.2111 26.557 48.1819 26.6157 48.1382C26.689 48.0945 26.733 48.0071 26.777 47.8906L26.865 47.6575L25.7065 44.7731C25.6918 44.7294 25.7065 44.7148 25.7651 44.7148H26.5863C26.6303 44.7148 26.645 44.7294 26.6597 44.7731L27.2902 46.5649H27.3049L27.8915 44.7731C27.9062 44.7294 27.9355 44.7148 27.9648 44.7148H28.7714C28.8154 44.7148 28.83 44.7294 28.83 44.7731L27.5689 48.08C27.5102 48.2548 27.4369 48.4005 27.3636 48.5024C27.2902 48.6044 27.2169 48.7064 27.1289 48.7792C27.0409 48.8521 26.953 48.8958 26.8356 48.9249C26.733 48.954 26.601 48.9686 26.4544 48.9686H26.2197V48.954Z" fill="#36302B"/>
<path d="M32.7311 47.8746C32.3938 47.8746 32.1152 47.8018 31.8659 47.6561C31.6313 47.5105 31.4553 47.2919 31.3673 47.0152C31.338 46.8986 31.3086 46.7966 31.294 46.6655C31.2793 46.549 31.2646 46.4179 31.2646 46.2576C31.2646 46.0974 31.2793 45.9663 31.294 45.8497C31.3086 45.7332 31.338 45.6167 31.3673 45.5001C31.4553 45.2233 31.6166 45.0048 31.8659 44.8591C32.1005 44.7135 32.3938 44.6406 32.7311 44.6406C33.0684 44.6406 33.347 44.7135 33.5963 44.8591C33.831 45.0048 34.0069 45.2233 34.0949 45.5001C34.1243 45.6167 34.1536 45.7186 34.1683 45.8497C34.1829 45.9663 34.1976 46.0974 34.1976 46.2576C34.1976 46.4179 34.1829 46.549 34.1683 46.6655C34.1536 46.7821 34.1243 46.8986 34.0949 47.0152C34.0069 47.2919 33.8456 47.5105 33.5963 47.6561C33.347 47.8018 33.0537 47.8746 32.7311 47.8746ZM32.7311 47.1171C32.9804 47.1171 33.1417 47.0006 33.2151 46.7821C33.2297 46.7092 33.2444 46.6364 33.259 46.5636C33.2737 46.4907 33.2737 46.3887 33.2737 46.2576C33.2737 46.1265 33.2737 46.0246 33.259 45.9517C33.2444 45.8789 33.2297 45.806 33.2151 45.7332C33.1417 45.5147 32.9804 45.3981 32.7311 45.3981C32.4818 45.3981 32.3205 45.5147 32.2472 45.7332C32.2325 45.806 32.2179 45.8789 32.2032 45.9517C32.1885 46.0246 32.1885 46.1265 32.1885 46.2576C32.1885 46.3887 32.1885 46.4907 32.2032 46.5636C32.2179 46.6364 32.2325 46.7092 32.2472 46.7821C32.3205 47.0006 32.4818 47.1171 32.7311 47.1171Z" fill="#36302B"/>
<path d="M35.3266 47.801C35.2826 47.801 35.2679 47.7865 35.2679 47.7428V45.3974C35.2679 45.3682 35.2532 45.3537 35.2239 45.3537H35.0333C34.9893 45.3537 34.9746 45.3391 34.9746 45.2954V44.7564C34.9746 44.7127 34.9893 44.6981 35.0333 44.6981H35.2239C35.2532 44.6981 35.2679 44.6836 35.2679 44.6544V44.5088C35.2679 44.13 35.3559 43.8532 35.5319 43.693C35.7078 43.5327 35.9865 43.4453 36.3678 43.4453H36.7197C36.7637 43.4453 36.7784 43.4599 36.7784 43.5036V44.1009C36.7784 44.1446 36.7637 44.1591 36.7197 44.1591H36.5144C36.3678 44.1591 36.2798 44.1883 36.2358 44.232C36.1918 44.2757 36.1625 44.3631 36.1625 44.4942V44.6544C36.1625 44.6836 36.1771 44.6981 36.2064 44.6981H36.7197C36.7637 44.6981 36.7784 44.7127 36.7784 44.7564V45.2954C36.7784 45.3391 36.7637 45.3537 36.7197 45.3537H36.2064C36.1771 45.3537 36.1625 45.3682 36.1625 45.3974V47.7428C36.1625 47.7865 36.1478 47.801 36.1038 47.801H35.3266Z" fill="#36302B"/>
<path d="M40.3715 47.801C40.3275 47.801 40.3129 47.7865 40.3129 47.7428V44.3194C40.3129 44.2902 40.2982 44.2757 40.2689 44.2757H39.1544C39.1104 44.2757 39.0957 44.2611 39.0957 44.2174V43.5036C39.0957 43.4599 39.1104 43.4453 39.1544 43.4453H42.3953C42.4393 43.4453 42.4539 43.4599 42.4539 43.5036V44.2174C42.4539 44.2611 42.4393 44.2757 42.3953 44.2757H41.2807C41.2514 44.2757 41.2367 44.2902 41.2367 44.3194V47.7428C41.2367 47.7865 41.2221 47.801 41.1781 47.801H40.3715Z" fill="#36302B"/>
<path d="M43.3487 47.8018C43.3047 47.8018 43.29 47.7872 43.29 47.7435V44.7717C43.29 44.728 43.3047 44.7135 43.3487 44.7135H44.1259C44.1699 44.7135 44.1846 44.728 44.1846 44.7717V45.034C44.2579 44.9028 44.3606 44.8154 44.5072 44.7426C44.6392 44.6698 44.8152 44.6406 45.0058 44.6406C45.1085 44.6406 45.2111 44.6552 45.2991 44.6843C45.3871 44.7135 45.4751 44.7572 45.5484 44.8154C45.5777 44.8446 45.5777 44.8737 45.5631 44.9028L45.1964 45.5584C45.1818 45.5875 45.1378 45.5875 45.1085 45.573C44.9471 45.471 44.8005 45.4273 44.6539 45.4273C44.4925 45.4418 44.3606 45.5001 44.2872 45.6167C44.2139 45.7332 44.1699 45.8934 44.1699 46.0974V47.729C44.1699 47.7727 44.1553 47.7872 44.1113 47.7872H43.3487V47.8018Z" fill="#36302B"/>
<path d="M48.0119 47.8008C47.9679 47.8008 47.9533 47.7862 47.9533 47.7425V47.5385C47.8653 47.6405 47.7626 47.7279 47.6306 47.7862C47.4987 47.8445 47.3227 47.8736 47.1027 47.8736C46.9707 47.8736 46.8388 47.859 46.7068 47.8153C46.5748 47.7862 46.4721 47.7279 46.3695 47.6405C46.2815 47.5677 46.1935 47.4657 46.1495 47.3492C46.0909 47.2326 46.0615 47.0869 46.0615 46.9267C46.0615 46.5916 46.1788 46.3294 46.4135 46.1692C46.6481 46.0089 46.9707 45.9215 47.352 45.9215H47.9093C47.9386 45.9215 47.9533 45.907 47.9533 45.8778V45.7613C47.9533 45.6156 47.9093 45.5136 47.8213 45.4408C47.7333 45.368 47.5573 45.3388 47.308 45.3388C47.1467 45.3388 47.0147 45.3534 46.8974 45.3971C46.7801 45.4408 46.6921 45.4845 46.6188 45.5428C46.5895 45.5719 46.5601 45.5573 46.5308 45.5282L46.2375 45.0183C46.2228 44.9746 46.2228 44.9455 46.2522 44.9309C46.3841 44.8435 46.5455 44.7561 46.7361 44.7124C46.9267 44.6541 47.1467 44.625 47.4107 44.625C47.66 44.625 47.8799 44.6541 48.0559 44.6978C48.2319 44.7415 48.3785 44.8144 48.4812 44.9018C48.5838 44.9892 48.6718 45.1057 48.7158 45.2514C48.7598 45.3971 48.7892 45.5573 48.7892 45.7467V47.7279C48.7892 47.7716 48.7745 47.7862 48.7305 47.7862H48.0119V47.8008ZM47.3667 47.1889C47.748 47.1889 47.9533 47.0432 47.9533 46.7664V46.5479C47.9533 46.5188 47.9386 46.5042 47.9093 46.5042H47.4693C47.1027 46.5042 46.9121 46.6208 46.9121 46.8539C46.9121 47.0869 47.0587 47.1889 47.3667 47.1889Z" fill="#36302B"/>
<path d="M51.8391 47.8008C51.7951 47.8008 51.7804 47.7862 51.7804 47.7425V45.9507C51.7804 45.7758 51.7364 45.6447 51.6631 45.5428C51.5898 45.4408 51.4578 45.3825 51.2965 45.3825C51.1352 45.3825 51.0178 45.4408 50.9298 45.5428C50.8419 45.6447 50.7979 45.7758 50.7979 45.9507V47.7279C50.7979 47.7716 50.7832 47.7862 50.7392 47.7862H49.962C49.918 47.7862 49.9033 47.7716 49.9033 47.7279V44.7561C49.9033 44.7124 49.918 44.6978 49.962 44.6978H50.7392C50.7832 44.6978 50.7979 44.7124 50.7979 44.7561V44.9746C50.8712 44.8726 50.9738 44.7998 51.1058 44.727C51.2378 44.6541 51.3991 44.625 51.6044 44.625C51.7804 44.625 51.927 44.6541 52.059 44.7124C52.191 44.7707 52.3083 44.8435 52.3963 44.9455C52.4843 45.0475 52.5576 45.164 52.6016 45.3097C52.6456 45.4554 52.675 45.601 52.675 45.7758V47.7279C52.675 47.7716 52.6603 47.7862 52.6163 47.7862H51.8391V47.8008Z" fill="#36302B"/>
<path d="M54.9923 47.8736C54.6697 47.8736 54.3911 47.8299 54.1564 47.7279C53.9218 47.6259 53.7311 47.524 53.5845 47.3929C53.5552 47.3637 53.5552 47.3346 53.5845 47.3055L54.0098 46.8393C54.0391 46.8102 54.0684 46.8102 54.0978 46.8393C54.2297 46.9413 54.3911 47.0287 54.5524 47.0869C54.7137 47.1452 54.8897 47.1743 55.051 47.1743C55.2123 47.1743 55.3296 47.1452 55.4176 47.0869C55.4909 47.0287 55.5349 46.9558 55.5349 46.8684C55.5349 46.7956 55.5056 46.7373 55.4469 46.6936C55.3883 46.6499 55.2709 46.6208 55.095 46.6062L54.743 46.5625C54.4057 46.5334 54.1564 46.4314 53.9804 46.2711C53.8045 46.1109 53.7165 45.8924 53.7165 45.6156C53.7165 45.3097 53.8338 45.062 54.0538 44.8872C54.2737 44.7124 54.5964 44.625 55.007 44.625C55.2709 44.625 55.5202 44.6541 55.7255 44.727C55.9455 44.7998 56.1215 44.8872 56.2681 45.0038C56.2975 45.0329 56.2975 45.062 56.2681 45.1057L55.9015 45.5428C55.8722 45.5719 55.8429 45.5719 55.8135 45.5573C55.7109 45.4845 55.5789 45.4262 55.4322 45.3825C55.2856 45.3388 55.1243 45.3097 54.963 45.3097C54.831 45.3097 54.7283 45.3388 54.6697 45.3825C54.611 45.4262 54.567 45.4845 54.567 45.5719C54.567 45.6447 54.5964 45.703 54.655 45.7467C54.7137 45.7904 54.831 45.8196 55.007 45.8341L55.3443 45.8778C55.7109 45.907 55.9748 46.0089 56.1362 46.1837C56.2975 46.344 56.3855 46.5625 56.3855 46.8247C56.3855 47.1452 56.2535 47.4074 56.0188 47.5968C55.7842 47.7862 55.4469 47.8736 54.9923 47.8736Z" fill="#36302B"/>
<path d="M57.3975 48.9516C57.3535 48.9516 57.3389 48.937 57.3389 48.8933V44.7707C57.3389 44.727 57.3535 44.7124 57.3975 44.7124H58.1748C58.2188 44.7124 58.2334 44.727 58.2334 44.7707V44.9892C58.3067 44.8872 58.4094 44.7998 58.5414 44.727C58.6734 44.6541 58.8493 44.625 59.0546 44.625C59.3186 44.625 59.5386 44.6833 59.7145 44.8144C59.8905 44.9455 60.0225 45.1203 60.1105 45.368C60.1545 45.4991 60.1838 45.6156 60.1985 45.7467C60.2131 45.8778 60.2278 46.0381 60.2278 46.242C60.2278 46.446 60.2131 46.6062 60.1985 46.7373C60.1838 46.8684 60.1545 46.9995 60.1105 47.1161C60.0225 47.3637 59.8905 47.5385 59.7145 47.6696C59.5386 47.8008 59.3186 47.859 59.0546 47.859C58.8493 47.859 58.6734 47.8299 58.5414 47.757C58.4094 47.6842 58.3067 47.6114 58.2334 47.4948V48.8788C58.2334 48.9225 58.2188 48.937 58.1748 48.937H57.3975V48.9516ZM58.7613 47.1161C59.0106 47.1161 59.172 46.9995 59.2453 46.781C59.2599 46.7227 59.2746 46.6499 59.2893 46.5771C59.3039 46.5042 59.3039 46.3877 59.3039 46.2566C59.3039 46.1255 59.3039 46.0089 59.2893 45.9361C59.2746 45.8633 59.2599 45.7904 59.2453 45.7321C59.172 45.5136 59.0106 45.3971 58.7613 45.3971C58.512 45.3971 58.3507 45.5136 58.2774 45.7321C58.2627 45.7904 58.2481 45.8633 58.2334 45.9361C58.2187 46.0089 58.2187 46.1255 58.2187 46.2566C58.2187 46.3877 58.2187 46.5042 58.2334 46.5771C58.2481 46.6499 58.2627 46.7227 58.2774 46.781C58.3654 46.9995 58.5267 47.1161 58.7613 47.1161Z" fill="#36302B"/>
<path d="M62.486 47.8746C62.1487 47.8746 61.8701 47.8018 61.6208 47.6561C61.3861 47.5105 61.2102 47.2919 61.1222 47.0152C61.0929 46.8986 61.0635 46.7966 61.0489 46.6655C61.0342 46.549 61.0195 46.4179 61.0195 46.2576C61.0195 46.0974 61.0342 45.9663 61.0489 45.8497C61.0635 45.7332 61.0929 45.6167 61.1222 45.5001C61.2102 45.2233 61.3715 45.0048 61.6208 44.8591C61.8554 44.7135 62.1487 44.6406 62.486 44.6406C62.8233 44.6406 63.1019 44.7135 63.3512 44.8591C63.5859 45.0048 63.7618 45.2233 63.8498 45.5001C63.8791 45.6167 63.9085 45.7186 63.9231 45.8497C63.9378 45.9663 63.9525 46.0974 63.9525 46.2576C63.9525 46.4179 63.9378 46.549 63.9231 46.6655C63.9085 46.7821 63.8791 46.8986 63.8498 47.0152C63.7618 47.2919 63.6005 47.5105 63.3512 47.6561C63.1019 47.8018 62.8233 47.8746 62.486 47.8746ZM62.486 47.1171C62.7353 47.1171 62.8966 47.0006 62.9699 46.7821C62.9846 46.7092 62.9993 46.6364 63.0139 46.5636C63.0286 46.4907 63.0286 46.3887 63.0286 46.2576C63.0286 46.1265 63.0286 46.0246 63.0139 45.9517C62.9993 45.8789 62.9846 45.806 62.9699 45.7332C62.8966 45.5147 62.7353 45.3981 62.486 45.3981C62.2367 45.3981 62.0754 45.5147 62.0021 45.7332C61.9874 45.806 61.9727 45.8789 61.9581 45.9517C61.9434 46.0246 61.9434 46.1265 61.9434 46.2576C61.9434 46.3887 61.9434 46.4907 61.9581 46.5636C61.9727 46.6364 61.9874 46.7092 62.0021 46.7821C62.0754 47.0006 62.2367 47.1171 62.486 47.1171Z" fill="#36302B"/>
<path d="M64.9786 47.8018C64.9346 47.8018 64.9199 47.7872 64.9199 47.7435V44.7717C64.9199 44.728 64.9346 44.7135 64.9786 44.7135H65.7558C65.7998 44.7135 65.8145 44.728 65.8145 44.7717V45.034C65.8878 44.9028 65.9904 44.8154 66.1371 44.7426C66.2691 44.6698 66.445 44.6406 66.6357 44.6406C66.7383 44.6406 66.841 44.6552 66.929 44.6843C67.017 44.7135 67.105 44.7572 67.1783 44.8154C67.2076 44.8446 67.2076 44.8737 67.1929 44.9028L66.8263 45.5584C66.8117 45.5875 66.7677 45.5875 66.7383 45.573C66.577 45.471 66.4304 45.4273 66.2837 45.4273C66.1224 45.4418 65.9904 45.5001 65.9171 45.6167C65.8438 45.7332 65.7998 45.8934 65.7998 46.0974V47.729C65.7998 47.7727 65.7851 47.7872 65.7411 47.7872H64.9786V47.8018Z" fill="#36302B"/>
<path d="M69.0258 47.8329C68.6592 47.8329 68.4099 47.7455 68.2633 47.5852C68.1166 47.425 68.0433 47.1627 68.0433 46.7985V45.3855C68.0433 45.3564 68.0286 45.3418 67.9993 45.3418H67.8087C67.7647 45.3418 67.75 45.3272 67.75 45.2835V44.7445C67.75 44.7008 67.7647 44.6862 67.8087 44.6862H67.9993C68.0286 44.6862 68.0433 44.6717 68.0433 44.6425V43.8122C68.0433 43.7685 68.058 43.7539 68.102 43.7539H68.8645C68.9085 43.7539 68.9232 43.7685 68.9232 43.8122V44.6425C68.9232 44.6717 68.9378 44.6862 68.9672 44.6862H69.3631C69.4071 44.6862 69.4218 44.7008 69.4218 44.7445V45.2835C69.4218 45.3272 69.4071 45.3418 69.3631 45.3418H68.9672C68.9378 45.3418 68.9232 45.3564 68.9232 45.3855V46.7548C68.9232 46.8714 68.9378 46.9442 68.9818 47.0025C69.0258 47.0462 69.0992 47.0753 69.2018 47.0753H69.3631C69.4071 47.0753 69.4218 47.0899 69.4218 47.1336V47.7746C69.4218 47.8183 69.4071 47.8329 69.3631 47.8329H69.0258Z" fill="#36302B"/>
<path d="M74.0559 47.8008C74.0119 47.8008 73.9972 47.7862 73.9972 47.7425V47.5385C73.9092 47.6405 73.8066 47.7279 73.6746 47.7862C73.5426 47.8445 73.3666 47.8736 73.1467 47.8736C73.0147 47.8736 72.8827 47.859 72.7507 47.8153C72.6187 47.7862 72.5161 47.7279 72.4134 47.6405C72.3254 47.5677 72.2374 47.4657 72.1935 47.3492C72.1348 47.2326 72.1055 47.0869 72.1055 46.9267C72.1055 46.5916 72.2228 46.3294 72.4574 46.1692C72.6921 46.0089 73.0147 45.9215 73.396 45.9215H73.9532C73.9825 45.9215 73.9972 45.907 73.9972 45.8778V45.7613C73.9972 45.6156 73.9532 45.5136 73.8652 45.4408C73.7772 45.368 73.6013 45.3388 73.352 45.3388C73.1907 45.3388 73.0587 45.3534 72.9414 45.3971C72.824 45.4408 72.736 45.4845 72.6627 45.5428C72.6334 45.5719 72.6041 45.5573 72.5747 45.5282L72.2814 45.0183C72.2668 44.9746 72.2668 44.9455 72.2961 44.9309C72.4281 44.8435 72.5894 44.7561 72.78 44.7124C72.9707 44.6541 73.1907 44.625 73.4546 44.625C73.7039 44.625 73.9239 44.6541 74.0999 44.6978C74.2758 44.7415 74.4225 44.8144 74.5251 44.9018C74.6278 44.9892 74.7158 45.1057 74.7598 45.2514C74.8038 45.3971 74.8331 45.5573 74.8331 45.7467V47.7279C74.8331 47.7716 74.8184 47.7862 74.7744 47.7862H74.0559V47.8008ZM73.396 47.1889C73.7772 47.1889 73.9825 47.0432 73.9825 46.7664V46.5479C73.9825 46.5188 73.9679 46.5042 73.9386 46.5042H73.4986C73.132 46.5042 72.9414 46.6208 72.9414 46.8539C72.956 47.0869 73.1027 47.1889 73.396 47.1889Z" fill="#36302B"/>
<path d="M77.884 47.8008C77.84 47.8008 77.8253 47.7862 77.8253 47.7425V45.9507C77.8253 45.7758 77.7813 45.6447 77.708 45.5428C77.6347 45.4408 77.5027 45.3825 77.3414 45.3825C77.1801 45.3825 77.0628 45.4408 76.9748 45.5428C76.8868 45.6447 76.8428 45.7758 76.8428 45.9507V47.7279C76.8428 47.7716 76.8281 47.7862 76.7841 47.7862H76.0069C75.9629 47.7862 75.9482 47.7716 75.9482 47.7279V44.7561C75.9482 44.7124 75.9629 44.6978 76.0069 44.6978H76.7841C76.8281 44.6978 76.8428 44.7124 76.8428 44.7561V44.9746C76.9161 44.8726 77.0188 44.7998 77.1507 44.727C77.2827 44.6541 77.444 44.625 77.6493 44.625C77.8253 44.625 77.972 44.6541 78.1039 44.7124C78.2359 44.7707 78.3533 44.8435 78.4412 44.9455C78.5292 45.0475 78.6025 45.164 78.6465 45.3097C78.6905 45.4554 78.7199 45.601 78.7199 45.7758V47.7279C78.7199 47.7716 78.7052 47.7862 78.6612 47.7862H77.884V47.8008Z" fill="#36302B"/>
<path d="M81.7113 47.8032C81.6673 47.8032 81.6526 47.7886 81.6526 47.7449V47.5264C81.5793 47.6283 81.4766 47.7158 81.3446 47.7886C81.2127 47.8614 81.0367 47.8906 80.8314 47.8906C80.5674 47.8906 80.3474 47.8323 80.1715 47.7012C79.9955 47.5701 79.8635 47.3953 79.7755 47.1476C79.7315 47.0165 79.7022 46.9 79.6875 46.7689C79.6729 46.6377 79.6582 46.4775 79.6582 46.2736C79.6582 46.0696 79.6729 45.8948 79.6875 45.7783C79.7022 45.6617 79.7315 45.5306 79.7755 45.3995C79.8635 45.1518 79.9955 44.9625 80.1715 44.8459C80.3474 44.7148 80.5674 44.6565 80.8314 44.6565C81.0367 44.6565 81.2127 44.6857 81.3446 44.7585C81.4766 44.8314 81.5793 44.9042 81.6526 45.0207V43.5348C81.6526 43.4911 81.6673 43.4766 81.7113 43.4766H82.4885C82.5325 43.4766 82.5471 43.4911 82.5471 43.5348V47.7595C82.5471 47.8032 82.5325 47.8177 82.4885 47.8177H81.7113V47.8032ZM81.11 47.1185C81.3593 47.1185 81.5206 47.0019 81.5939 46.7834C81.6086 46.7252 81.6233 46.6523 81.6379 46.5795C81.6526 46.5066 81.6526 46.3901 81.6526 46.259C81.6526 46.1279 81.6526 46.0113 81.6379 45.9385C81.6233 45.8657 81.6086 45.7928 81.5939 45.7346C81.5206 45.516 81.3593 45.3995 81.11 45.3995C80.8607 45.3995 80.6994 45.516 80.6261 45.7346C80.6114 45.7928 80.5967 45.8657 80.5821 45.9385C80.5674 46.0113 80.5674 46.1279 80.5674 46.259C80.5674 46.3901 80.5674 46.5066 80.5821 46.5795C80.5967 46.6523 80.6114 46.7252 80.6261 46.7834C80.6994 47.0019 80.8607 47.1185 81.11 47.1185Z" fill="#36302B"/>
<path d="M85.5098 43.5036C85.5098 43.4599 85.5244 43.4453 85.5684 43.4453H86.3896C86.4336 43.4453 86.4483 43.4599 86.4483 43.5036V46.927C86.4483 46.9561 86.463 46.9707 86.4923 46.9707H88.428C88.472 46.9707 88.4867 46.9853 88.4867 47.029V47.7428C88.4867 47.7865 88.472 47.801 88.428 47.801H85.5684C85.5244 47.801 85.5098 47.7865 85.5098 47.7428V43.5036Z" fill="#36302B"/>
<path d="M90.6569 47.8746C90.3196 47.8746 90.041 47.8018 89.7917 47.6561C89.5424 47.5105 89.3811 47.2919 89.2931 47.0152C89.2638 46.8986 89.2344 46.7966 89.2198 46.6655C89.2051 46.5344 89.1904 46.4179 89.1904 46.2576C89.1904 46.0974 89.2051 45.9663 89.2198 45.8497C89.2344 45.7332 89.2638 45.6167 89.2931 45.5001C89.3811 45.2233 89.5424 45.0048 89.7917 44.8591C90.0263 44.7135 90.3196 44.6406 90.6569 44.6406C90.9942 44.6406 91.2728 44.7135 91.5221 44.8591C91.7567 45.0048 91.9327 45.2233 92.0207 45.5001C92.05 45.6167 92.0794 45.7186 92.094 45.8497C92.1087 45.9663 92.1234 46.0974 92.1234 46.2576C92.1234 46.4179 92.1087 46.549 92.094 46.6655C92.0794 46.7821 92.05 46.8986 92.0207 47.0152C91.9327 47.2919 91.7714 47.5105 91.5221 47.6561C91.2728 47.8018 90.9795 47.8746 90.6569 47.8746ZM90.6569 47.1171C90.9062 47.1171 91.0675 47.0006 91.1408 46.7821C91.1555 46.7092 91.1702 46.6364 91.1848 46.5636C91.1995 46.4907 91.1995 46.3887 91.1995 46.2576C91.1995 46.1265 91.1995 46.0246 91.1848 45.9517C91.1702 45.8789 91.1555 45.806 91.1408 45.7332C91.0675 45.5147 90.9062 45.3981 90.6569 45.3981C90.4076 45.3981 90.2463 45.5147 90.173 45.7332C90.1583 45.806 90.1436 45.8789 90.129 45.9517C90.1143 46.0246 90.1143 46.1265 90.1143 46.2576C90.1143 46.3887 90.1143 46.4907 90.129 46.5636C90.1436 46.6364 90.1583 46.7092 90.173 46.7821C90.2316 47.0006 90.3929 47.1171 90.6569 47.1171Z" fill="#36302B"/>
<path d="M94.2056 49.0244C94.0883 49.0244 93.9709 49.0099 93.8536 48.9953C93.7363 48.9662 93.6337 48.937 93.5163 48.8933C93.4137 48.8496 93.311 48.8059 93.223 48.7477C93.1351 48.6894 93.0617 48.6311 93.0031 48.5583C92.9738 48.5291 92.9738 48.4854 93.0031 48.4563L93.4577 47.9901C93.487 47.961 93.5163 47.961 93.5603 47.9901C93.663 48.0775 93.7656 48.1358 93.8683 48.1941C93.9709 48.2378 94.0883 48.2669 94.2056 48.2669C94.4256 48.2669 94.5869 48.2086 94.6895 48.0921C94.7922 47.9756 94.8362 47.8008 94.8362 47.5822V47.32C94.7628 47.4366 94.6602 47.524 94.5282 47.5822C94.3962 47.6405 94.2349 47.6842 94.0296 47.6842C93.7656 47.6842 93.5603 47.6259 93.3697 47.4948C93.1937 47.3637 93.0617 47.1889 92.9737 46.9267C92.9444 46.8102 92.9151 46.6936 92.9004 46.5771C92.8858 46.4605 92.8711 46.3148 92.8711 46.1546C92.8711 45.9944 92.8858 45.8487 92.9004 45.7321C92.9151 45.6156 92.9444 45.4991 92.9737 45.3825C93.0617 45.1349 93.1791 44.9455 93.3697 44.8144C93.5457 44.6833 93.7656 44.625 94.0296 44.625C94.2202 44.625 94.3962 44.6541 94.5282 44.727C94.6602 44.7852 94.7628 44.8727 94.8362 44.9892V44.7707C94.8362 44.727 94.8508 44.7124 94.8948 44.7124H95.6721C95.716 44.7124 95.7307 44.727 95.7307 44.7707V47.4803C95.76 48.5 95.2468 49.0244 94.2056 49.0244ZM94.3376 46.9267C94.4549 46.9267 94.5575 46.8976 94.6309 46.8393C94.7042 46.781 94.7628 46.6936 94.7922 46.5916C94.8068 46.5334 94.8215 46.4751 94.8362 46.4023C94.8508 46.3294 94.8508 46.2566 94.8508 46.1546C94.8508 46.0526 94.8508 45.9798 94.8362 45.907C94.8215 45.8341 94.8068 45.7758 94.7922 45.7176C94.7628 45.601 94.7042 45.5282 94.6309 45.4699C94.5575 45.4117 94.4549 45.3825 94.3376 45.3825C94.2056 45.3825 94.1176 45.4117 94.0443 45.4699C93.9709 45.5282 93.9123 45.6156 93.883 45.7176C93.8683 45.7758 93.8536 45.8341 93.839 45.907C93.8243 45.9798 93.8243 46.0526 93.8243 46.1546C93.8243 46.2566 93.8243 46.3294 93.839 46.4023C93.8536 46.4751 93.8536 46.5334 93.883 46.5916C93.927 46.7082 93.9709 46.781 94.0443 46.8393C94.1029 46.8976 94.2056 46.9267 94.3376 46.9267Z" fill="#36302B"/>
<path d="M96.9337 44.2028C96.8897 44.2028 96.875 44.1883 96.875 44.1446V43.5036C96.875 43.4599 96.8897 43.4453 96.9337 43.4453H97.7109C97.7549 43.4453 97.7696 43.4599 97.7696 43.5036V44.1446C97.7696 44.1883 97.7549 44.2028 97.7109 44.2028H96.9337ZM96.9337 47.801C96.8897 47.801 96.875 47.7865 96.875 47.7428V44.771C96.875 44.7273 96.8897 44.7127 96.9337 44.7127H97.7109C97.7549 44.7127 97.7696 44.7273 97.7696 44.771V47.7428C97.7696 47.7865 97.7549 47.801 97.7109 47.801H96.9337Z" fill="#36302B"/>
<path d="M100.115 47.8736C99.7927 47.8736 99.5141 47.8299 99.2795 47.7279C99.0448 47.6259 98.8542 47.524 98.7075 47.3929C98.6782 47.3637 98.6782 47.3346 98.7075 47.3055L99.1328 46.8393C99.1622 46.8102 99.1915 46.8102 99.2208 46.8393C99.3528 46.9413 99.5141 47.0287 99.6754 47.0869C99.8367 47.1452 100.013 47.1743 100.174 47.1743C100.335 47.1743 100.453 47.1452 100.541 47.0869C100.614 47.0287 100.658 46.9558 100.658 46.8684C100.658 46.7956 100.629 46.7373 100.57 46.6936C100.511 46.6499 100.394 46.6208 100.218 46.6062L99.8661 46.5625C99.5288 46.5334 99.2795 46.4314 99.1035 46.2711C98.9275 46.1109 98.8395 45.8924 98.8395 45.6156C98.8395 45.3097 98.9568 45.062 99.1768 44.8872C99.3968 44.7124 99.7194 44.625 100.13 44.625C100.394 44.625 100.643 44.6541 100.849 44.727C101.069 44.7998 101.245 44.8872 101.391 45.0038C101.421 45.0329 101.421 45.062 101.391 45.1057L101.025 45.5428C100.995 45.5719 100.966 45.5719 100.937 45.5573C100.834 45.4845 100.702 45.4262 100.555 45.3825C100.409 45.3388 100.247 45.3097 100.086 45.3097C99.954 45.3097 99.8514 45.3388 99.7927 45.3825C99.7341 45.4262 99.6901 45.4845 99.6901 45.5719C99.6901 45.6447 99.7194 45.703 99.7781 45.7467C99.8367 45.7904 99.954 45.8196 100.13 45.8341L100.467 45.8778C100.834 45.907 101.098 46.0089 101.259 46.1837C101.421 46.344 101.494 46.5625 101.494 46.8247C101.494 47.1452 101.362 47.4074 101.127 47.5968C100.893 47.7862 100.57 47.8736 100.115 47.8736Z" fill="#36302B"/>
<path d="M103.518 47.8329C103.151 47.8329 102.902 47.7455 102.755 47.5852C102.609 47.425 102.535 47.1627 102.535 46.7985V45.3855C102.535 45.3564 102.521 45.3418 102.491 45.3418H102.301C102.257 45.3418 102.242 45.3272 102.242 45.2835V44.7445C102.242 44.7008 102.257 44.6862 102.301 44.6862H102.491C102.521 44.6862 102.535 44.6717 102.535 44.6425V43.8122C102.535 43.7685 102.55 43.7539 102.594 43.7539H103.357C103.401 43.7539 103.415 43.7685 103.415 43.8122V44.6425C103.415 44.6717 103.43 44.6862 103.459 44.6862H103.855C103.899 44.6862 103.914 44.7008 103.914 44.7445V45.2835C103.914 45.3272 103.899 45.3418 103.855 45.3418H103.459C103.43 45.3418 103.415 45.3564 103.415 45.3855V46.7548C103.415 46.8714 103.43 46.9442 103.474 47.0025C103.518 47.0462 103.591 47.0753 103.694 47.0753H103.855C103.899 47.0753 103.914 47.0899 103.914 47.1336V47.7746C103.914 47.8183 103.899 47.8329 103.855 47.8329H103.518Z" fill="#36302B"/>
<path d="M104.955 44.2028C104.911 44.2028 104.896 44.1883 104.896 44.1446V43.5036C104.896 43.4599 104.911 43.4453 104.955 43.4453H105.732C105.776 43.4453 105.791 43.4599 105.791 43.5036V44.1446C105.791 44.1883 105.776 44.2028 105.732 44.2028H104.955ZM104.955 47.801C104.911 47.801 104.896 47.7865 104.896 47.7428V44.771C104.896 44.7273 104.911 44.7127 104.955 44.7127H105.732C105.776 44.7127 105.791 44.7273 105.791 44.771V47.7428C105.791 47.7865 105.776 47.801 105.732 47.801H104.955Z" fill="#36302B"/>
<path d="M108.211 47.8746C107.873 47.8746 107.595 47.8018 107.36 47.6561C107.125 47.5105 106.964 47.2919 106.861 47.0006C106.832 46.9132 106.803 46.7966 106.788 46.6801C106.773 46.5636 106.759 46.4179 106.759 46.2576C106.759 46.0974 106.773 45.9517 106.788 45.8352C106.803 45.7186 106.832 45.6021 106.861 45.5147C106.949 45.2233 107.125 45.0048 107.36 44.8591C107.595 44.7135 107.873 44.6406 108.211 44.6406C108.475 44.6406 108.724 44.6989 108.914 44.8009C109.12 44.9028 109.266 45.0485 109.384 45.2233C109.398 45.2525 109.398 45.2816 109.369 45.3107L108.812 45.6604C108.768 45.6895 108.739 45.6749 108.709 45.6458C108.636 45.5584 108.563 45.4855 108.489 45.4418C108.416 45.3981 108.313 45.3836 108.211 45.3836C108.093 45.3836 107.991 45.4127 107.903 45.471C107.815 45.5293 107.756 45.6167 107.727 45.7186C107.712 45.7769 107.697 45.8497 107.683 45.9371C107.668 46.0246 107.668 46.1265 107.668 46.2576C107.668 46.3887 107.668 46.4907 107.683 46.5781C107.697 46.6655 107.712 46.7384 107.727 46.7966C107.756 46.9132 107.815 46.986 107.903 47.0443C107.991 47.1026 108.093 47.1317 108.211 47.1317C108.328 47.1317 108.416 47.1171 108.489 47.0734C108.563 47.0297 108.636 46.9569 108.709 46.8695C108.739 46.8403 108.768 46.8258 108.812 46.8549L109.369 47.2191C109.398 47.2482 109.398 47.2774 109.384 47.3065C109.266 47.4813 109.12 47.6124 108.914 47.729C108.709 47.8164 108.475 47.8746 108.211 47.8746Z" fill="#36302B"/>
<path d="M113.636 47.8754C113.46 47.8754 113.299 47.8608 113.123 47.8316C112.962 47.8025 112.8 47.7588 112.654 47.7005C112.507 47.6423 112.375 47.584 112.243 47.5112C112.126 47.4383 112.023 47.3655 111.935 47.2781C111.906 47.2489 111.906 47.2052 111.935 47.1761L112.419 46.6225C112.448 46.5934 112.478 46.5934 112.522 46.6225C112.668 46.7391 112.844 46.841 113.035 46.9285C113.226 47.0159 113.446 47.0596 113.68 47.0596C113.915 47.0596 114.091 47.0159 114.208 46.9139C114.325 46.8119 114.399 46.6954 114.399 46.5351C114.399 46.404 114.355 46.302 114.252 46.2146C114.164 46.1272 113.973 46.069 113.71 46.0398L113.475 46.0107C113.02 45.9524 112.683 45.8213 112.448 45.6028C112.214 45.3843 112.096 45.0929 112.096 44.6996C112.096 44.4957 112.126 44.3208 112.199 44.146C112.272 43.9858 112.375 43.8401 112.507 43.7236C112.639 43.607 112.8 43.5196 112.991 43.4613C113.182 43.4031 113.402 43.3594 113.636 43.3594C113.929 43.3594 114.208 43.4031 114.457 43.4759C114.721 43.5633 114.941 43.6653 115.117 43.811C115.161 43.8401 115.161 43.8692 115.132 43.9129L114.736 44.4957C114.707 44.5248 114.677 44.5394 114.648 44.5102C114.487 44.3937 114.311 44.3208 114.149 44.2626C113.988 44.2043 113.812 44.1752 113.636 44.1752C113.446 44.1752 113.299 44.2189 113.196 44.3063C113.094 44.3937 113.05 44.5102 113.05 44.6413C113.05 44.7724 113.094 44.8744 113.196 44.9473C113.299 45.0347 113.475 45.0929 113.724 45.1221L113.959 45.1512C114.413 45.2095 114.765 45.3406 114.985 45.5591C115.205 45.7776 115.337 46.069 115.337 46.4769C115.337 46.6662 115.308 46.8556 115.235 47.0304C115.161 47.2052 115.059 47.3509 114.912 47.4675C114.765 47.584 114.589 47.686 114.369 47.7588C114.149 47.8316 113.929 47.8754 113.636 47.8754Z" fill="#36302B"/>
<path d="M117.625 47.8764C117.273 47.8764 116.965 47.8036 116.73 47.6434C116.496 47.4831 116.334 47.2646 116.246 46.9878C116.217 46.8858 116.188 46.7839 116.173 46.6673C116.158 46.5508 116.144 46.4197 116.144 46.2449C116.144 46.0846 116.158 45.9389 116.173 45.8224C116.188 45.7059 116.217 45.6039 116.246 45.5019C116.334 45.2251 116.496 45.0066 116.73 44.8464C116.965 44.7007 117.243 44.6133 117.581 44.6133C117.933 44.6133 118.211 44.6861 118.446 44.8464C118.681 45.0066 118.842 45.2106 118.93 45.4873C118.945 45.5456 118.959 45.5893 118.974 45.6476C118.989 45.7059 119.003 45.7641 119.003 45.837C119.018 45.9098 119.018 45.9972 119.018 46.0846C119.018 46.172 119.018 46.2886 119.018 46.4342C119.018 46.4779 118.989 46.4925 118.945 46.4925H117.053C117.023 46.4925 117.009 46.5071 117.009 46.5362C117.009 46.5945 117.023 46.6528 117.053 46.711C117.097 46.8421 117.17 46.9441 117.287 47.0169C117.405 47.0898 117.537 47.1189 117.698 47.1189C117.859 47.1189 117.991 47.0898 118.109 47.0461C118.226 47.0024 118.329 46.9295 118.417 46.8421C118.461 46.813 118.49 46.813 118.505 46.8421L118.93 47.2355C118.959 47.2646 118.959 47.2937 118.93 47.3229C118.783 47.4831 118.593 47.6142 118.373 47.7016C118.167 47.8182 117.918 47.8764 117.625 47.8764ZM118.109 45.9244C118.138 45.9244 118.153 45.9098 118.153 45.8807C118.153 45.837 118.153 45.7933 118.138 45.7496C118.123 45.7059 118.123 45.6767 118.109 45.6476C118.079 45.5456 118.006 45.4582 117.918 45.3999C117.83 45.3417 117.713 45.3125 117.581 45.3125C117.449 45.3125 117.346 45.3417 117.243 45.3999C117.155 45.4582 117.082 45.5456 117.053 45.6476C117.038 45.6767 117.038 45.7204 117.023 45.7496C117.023 45.7787 117.009 45.8224 117.009 45.8807C117.009 45.9098 117.023 45.9244 117.053 45.9244H118.109Z" fill="#36302B"/>
<path d="M120.06 47.8018C120.016 47.8018 120.001 47.7872 120.001 47.7435V44.7717C120.001 44.728 120.016 44.7135 120.06 44.7135H120.837C120.881 44.7135 120.896 44.728 120.896 44.7717V45.034C120.969 44.9028 121.071 44.8154 121.218 44.7426C121.35 44.6698 121.526 44.6406 121.717 44.6406C121.819 44.6406 121.922 44.6552 122.01 44.6843C122.113 44.7135 122.186 44.7572 122.259 44.8154C122.289 44.8446 122.289 44.8737 122.274 44.9028L121.907 45.5584C121.893 45.5875 121.849 45.5875 121.819 45.573C121.658 45.471 121.511 45.4273 121.365 45.4273C121.203 45.4418 121.071 45.5001 120.998 45.6167C120.925 45.7332 120.881 45.8934 120.881 46.0974V47.729C120.881 47.7727 120.866 47.7872 120.822 47.7872H120.06V47.8018Z" fill="#36302B"/>
<path d="M123.93 47.8032C123.886 47.8032 123.872 47.7886 123.857 47.7449L122.743 44.7731C122.728 44.7294 122.743 44.7148 122.801 44.7148H123.608C123.652 44.7148 123.681 44.7294 123.696 44.7731L124.297 46.6086H124.312L124.898 44.7731C124.913 44.7294 124.942 44.7148 124.986 44.7148H125.793C125.837 44.7148 125.852 44.7294 125.852 44.7731L124.737 47.7449C124.722 47.7886 124.693 47.8032 124.664 47.8032H123.93Z" fill="#36302B"/>
<path d="M126.688 44.2028C126.644 44.2028 126.629 44.1883 126.629 44.1446V43.5036C126.629 43.4599 126.644 43.4453 126.688 43.4453H127.465C127.509 43.4453 127.523 43.4599 127.523 43.5036V44.1446C127.523 44.1883 127.509 44.2028 127.465 44.2028H126.688ZM126.688 47.801C126.644 47.801 126.629 47.7865 126.629 47.7428V44.771C126.629 44.7273 126.644 44.7127 126.688 44.7127H127.465C127.509 44.7127 127.523 44.7273 127.523 44.771V47.7428C127.523 47.7865 127.509 47.801 127.465 47.801H126.688Z" fill="#36302B"/>
<path d="M129.943 47.8746C129.606 47.8746 129.327 47.8018 129.092 47.6561C128.858 47.5105 128.697 47.2919 128.594 47.0006C128.565 46.9132 128.535 46.7966 128.521 46.6801C128.506 46.5636 128.491 46.4179 128.491 46.2576C128.491 46.0974 128.506 45.9517 128.521 45.8352C128.535 45.7186 128.565 45.6021 128.594 45.5147C128.682 45.2233 128.858 45.0048 129.092 44.8591C129.327 44.7135 129.606 44.6406 129.943 44.6406C130.207 44.6406 130.456 44.6989 130.647 44.8009C130.852 44.9028 130.999 45.0485 131.116 45.2233C131.131 45.2525 131.131 45.2816 131.102 45.3107L130.544 45.6749C130.5 45.7041 130.471 45.6895 130.442 45.6604C130.368 45.573 130.295 45.5001 130.222 45.4564C130.148 45.4127 130.046 45.3981 129.943 45.3981C129.826 45.3981 129.723 45.4273 129.635 45.4855C129.547 45.5438 129.488 45.6312 129.459 45.7332C129.444 45.7915 129.43 45.8643 129.415 45.9517C129.4 46.0391 129.4 46.1411 129.4 46.2722C129.4 46.4033 129.4 46.5053 129.415 46.5927C129.43 46.6801 129.444 46.7529 129.459 46.8112C129.488 46.9277 129.547 47.0006 129.635 47.0589C129.723 47.1171 129.826 47.1463 129.943 47.1463C130.06 47.1463 130.148 47.1317 130.222 47.088C130.295 47.0443 130.368 46.9715 130.442 46.884C130.471 46.8549 130.5 46.8403 130.544 46.8695L131.102 47.2337C131.131 47.2628 131.131 47.2919 131.116 47.3211C130.999 47.4959 130.852 47.627 130.647 47.7435C130.442 47.8164 130.207 47.8746 129.943 47.8746Z" fill="#36302B"/>
<path d="M133.389 47.8764C133.037 47.8764 132.729 47.8036 132.495 47.6434C132.26 47.4831 132.099 47.2646 132.011 46.9878C131.982 46.8858 131.952 46.7839 131.938 46.6673C131.923 46.5508 131.908 46.4197 131.908 46.2449C131.908 46.0846 131.923 45.9389 131.938 45.8224C131.952 45.7059 131.982 45.6039 132.011 45.5019C132.099 45.2251 132.26 45.0066 132.495 44.8464C132.729 44.7007 133.008 44.6133 133.345 44.6133C133.697 44.6133 133.976 44.6861 134.211 44.8464C134.445 45.0066 134.607 45.2106 134.694 45.4873C134.709 45.5456 134.724 45.5893 134.738 45.6476C134.753 45.7059 134.768 45.7641 134.768 45.837C134.782 45.9098 134.782 45.9972 134.782 46.0846C134.782 46.172 134.782 46.2886 134.782 46.4342C134.782 46.4779 134.753 46.4925 134.709 46.4925H132.817C132.788 46.4925 132.773 46.5071 132.773 46.5362C132.773 46.5945 132.788 46.6528 132.817 46.711C132.861 46.8421 132.935 46.9441 133.052 47.0169C133.169 47.0898 133.301 47.1189 133.463 47.1189C133.624 47.1189 133.756 47.0898 133.873 47.0461C133.991 47.0024 134.093 46.9295 134.181 46.8421C134.225 46.813 134.255 46.813 134.269 46.8421L134.694 47.2355C134.724 47.2646 134.724 47.2937 134.694 47.3229C134.548 47.4831 134.357 47.6142 134.137 47.7016C133.932 47.8182 133.683 47.8764 133.389 47.8764ZM133.873 45.9244C133.903 45.9244 133.917 45.9098 133.917 45.8807C133.917 45.837 133.917 45.7933 133.903 45.7496C133.888 45.7059 133.888 45.6767 133.873 45.6476C133.844 45.5456 133.771 45.4582 133.683 45.3999C133.595 45.3417 133.477 45.3125 133.345 45.3125C133.213 45.3125 133.111 45.3417 133.008 45.3999C132.92 45.4582 132.847 45.5456 132.817 45.6476C132.803 45.6767 132.803 45.7204 132.788 45.7496C132.788 45.7787 132.773 45.8224 132.773 45.8807C132.773 45.9098 132.788 45.9244 132.817 45.9244H133.873Z" fill="#36302B"/>
<path d="M136.983 47.8736C136.66 47.8736 136.381 47.8299 136.147 47.7279C135.912 47.6259 135.721 47.524 135.575 47.3929C135.545 47.3637 135.545 47.3346 135.575 47.3055L136 46.8393C136.029 46.8102 136.059 46.8102 136.088 46.8393C136.22 46.9413 136.381 47.0287 136.543 47.0869C136.704 47.1452 136.88 47.1743 137.041 47.1743C137.203 47.1743 137.32 47.1452 137.408 47.0869C137.481 47.0287 137.525 46.9558 137.525 46.8684C137.525 46.7956 137.496 46.7373 137.437 46.6936C137.378 46.6499 137.261 46.6208 137.085 46.6062L136.733 46.5625C136.396 46.5334 136.147 46.4314 135.971 46.2711C135.795 46.1109 135.707 45.8924 135.707 45.6156C135.707 45.3097 135.824 45.062 136.044 44.8872C136.264 44.7124 136.587 44.625 136.997 44.625C137.261 44.625 137.51 44.6541 137.716 44.727C137.936 44.7998 138.112 44.8872 138.258 45.0038C138.288 45.0329 138.288 45.062 138.258 45.1057L137.892 45.5428C137.862 45.5719 137.833 45.5719 137.804 45.5573C137.701 45.4845 137.569 45.4262 137.422 45.3825C137.276 45.3388 137.115 45.3097 136.953 45.3097C136.821 45.3097 136.719 45.3388 136.66 45.3825C136.601 45.4262 136.557 45.4845 136.557 45.5719C136.557 45.6447 136.587 45.703 136.645 45.7467C136.704 45.7904 136.821 45.8196 136.997 45.8341L137.334 45.8778C137.701 45.907 137.965 46.0089 138.126 46.1837C138.288 46.344 138.361 46.5625 138.361 46.8247C138.361 47.1452 138.229 47.4074 137.994 47.5968C137.76 47.7862 137.437 47.8736 136.983 47.8736Z" fill="#36302B"/>
<path d="M157.38 32.375H155.312V37.7359H157.38V32.375Z" fill="#00665E"/>
<path d="M157.38 25.7344H155.312V31.6343H157.38V25.7344Z" fill="#00665E"/>
<path d="M157.19 21.0277L157.043 20.7509C156.94 20.5907 156.852 20.4305 156.764 20.2702C156.662 20.0663 156.53 19.8769 156.398 19.6875C156.266 19.8769 156.148 20.0663 156.031 20.2702C155.943 20.4305 155.84 20.5907 155.752 20.7364L155.488 21.2171L155.312 21.5376V25.0775H157.38V21.3774L157.292 21.2317L157.19 21.0277Z" fill="#00665E"/>
<path d="M161.281 40.1562V42.5016C161.281 44.847 159.609 46.8137 157.394 47.2798V43.3903H155.327V47.2798C153.098 46.8137 151.441 44.847 151.441 42.5016V40.1562L149.563 43.5214L149.578 43.5942C150.077 46.6097 152.467 48.8823 155.444 49.2756L156.397 49.9166L157.365 49.261C160.313 48.8531 162.688 46.5952 163.172 43.5942L163.187 43.5214L161.281 40.1562Z" fill="#00665E"/>
<path d="M156.662 16.1775L156.413 15.9007L156.325 15.8133L156.237 15.7259C156.105 15.5802 155.973 15.4491 155.841 15.3034C155.562 15.0266 155.283 14.7644 155.005 14.5022C154.711 14.2546 154.433 14.0069 154.154 13.7738C153.861 13.5553 153.582 13.3368 153.304 13.1328C153.025 12.9289 152.746 12.7541 152.468 12.5793C152.189 12.4045 151.94 12.2296 151.661 12.0985C151.397 11.9529 151.148 11.8218 150.913 11.6906C150.679 11.5595 150.429 11.4576 150.224 11.3556C149.784 11.1516 149.403 10.9768 149.066 10.8603C148.406 10.6272 148.039 10.4961 148.039 10.4961C148.039 10.4961 148.332 10.7729 148.86 11.2099C149.124 11.4284 149.432 11.7052 149.799 12.0111C150.165 12.3025 150.547 12.6667 150.972 13.06C151.192 13.2494 151.397 13.4533 151.617 13.6718C151.837 13.8904 152.087 14.0943 152.306 14.3274C152.541 14.5605 152.761 14.7936 153.01 15.0266C153.216 15.2597 153.436 15.4782 153.656 15.7113C154.33 15.8133 154.961 15.9444 155.562 16.1046L155.826 16.1775L155.914 16.1921L155.958 16.2066L156.09 16.2358L156.251 16.2795L156.354 16.3086L156.471 16.2795L156.691 16.2212L156.662 16.1775Z" fill="#00665E"/>
<path d="M156.852 16.0186L156.867 16.0332L156.969 16.1643L157.174 16.106C157.82 15.9312 158.494 15.8001 159.213 15.6981C159.418 15.4796 159.623 15.2611 159.829 15.0426C160.063 14.8095 160.298 14.5764 160.533 14.3433C160.753 14.1103 161.002 13.9063 161.222 13.6878C161.442 13.4693 161.662 13.2653 161.882 13.0905C162.307 12.7118 162.703 12.3476 163.07 12.0562C163.436 11.7503 163.744 11.4735 164.008 11.2696C164.536 10.8325 164.829 10.5703 164.829 10.5703C164.829 10.5703 164.448 10.6869 163.788 10.9199C163.451 11.0365 163.07 11.1967 162.63 11.4007C162.41 11.5026 162.175 11.6046 161.926 11.7357C161.691 11.8668 161.442 11.9979 161.163 12.1436C160.899 12.2747 160.635 12.4495 160.357 12.6244C160.078 12.7992 159.799 12.974 159.521 13.1779C159.242 13.3819 158.964 13.5858 158.67 13.8189C158.392 14.052 158.098 14.2851 157.82 14.5327C157.541 14.7804 157.262 15.0572 156.984 15.3194C156.852 15.4505 156.72 15.5962 156.588 15.7418L156.749 15.9312L156.852 16.0186Z" fill="#00665E"/>
<path d="M160.899 26.4606C160.87 25.8633 160.797 25.2078 160.679 24.5231C160.562 23.8384 160.386 23.1246 160.166 22.3962C159.99 21.8281 159.77 21.2599 159.521 20.6918L158.406 20.1528C158.26 20.0945 158.113 20.0217 157.966 19.9634C157.717 19.8614 157.468 19.7449 157.219 19.6575L156.852 19.5118L156.573 19.3953L156.471 19.3516L156.529 19.4535C156.676 19.6866 156.823 19.9051 156.955 20.1382C157.043 20.2985 157.145 20.4587 157.233 20.6044C157.321 20.7646 157.409 20.9249 157.497 21.0851C157.673 21.4056 157.82 21.7261 157.996 22.0466C158.142 22.3671 158.304 22.6876 158.436 23.008C158.714 23.649 158.949 24.2754 159.169 24.8727C159.374 25.4846 159.565 26.0673 159.697 26.6063C160.005 27.6988 160.181 28.6457 160.298 29.3013C160.342 29.6363 160.386 29.8986 160.416 30.0879C160.445 30.2773 160.445 30.3647 160.445 30.3647C160.445 30.3647 160.474 30.2773 160.533 30.0879C160.577 29.9131 160.65 29.6509 160.709 29.3013C160.767 28.9517 160.841 28.5438 160.87 28.0485C160.914 27.6114 160.929 27.0579 160.899 26.4606Z" fill="#00665E"/>
<path d="M156.324 19.3516L156.207 19.3953L155.884 19.5264L155.517 19.6721C155.268 19.774 155.019 19.876 154.769 19.978C154.623 20.0362 154.476 20.1091 154.344 20.1674L153.259 20.6772C153.01 21.2454 152.79 21.8135 152.599 22.3671C152.364 23.0955 152.188 23.8093 152.056 24.4794C151.939 25.1641 151.851 25.805 151.822 26.4169C151.792 27.0142 151.792 27.5677 151.822 28.0485C151.851 28.5292 151.91 28.9517 151.968 29.3013C152.012 29.6509 152.086 29.9131 152.13 30.0879C152.174 30.2627 152.218 30.3647 152.218 30.3647C152.218 30.3647 152.232 30.2627 152.247 30.0879C152.276 29.9131 152.32 29.6363 152.364 29.3013C152.482 28.6312 152.672 27.6988 152.98 26.6063C153.127 26.0673 153.318 25.4846 153.538 24.8727C153.758 24.2609 154.007 23.6345 154.285 23.008C154.432 22.6876 154.579 22.3671 154.74 22.0466C154.901 21.7261 155.063 21.4056 155.239 21.0851C155.327 20.9249 155.415 20.7646 155.503 20.6044C155.605 20.4441 155.693 20.2985 155.781 20.1382C155.913 19.9051 156.06 19.6866 156.207 19.4535L156.324 19.3516Z" fill="#00665E"/>
<path d="M155.797 16.4269L155.665 16.3977L155.518 16.354C154.99 16.2084 154.462 16.1064 153.92 16.019L153.729 15.9898L153.538 15.9607C153.289 15.9316 153.055 15.8879 152.805 15.8587C152.043 15.7713 151.28 15.7422 150.562 15.7422H150.239C149.432 15.7713 148.655 15.8296 147.966 15.9316C147.262 16.0335 146.631 16.1647 146.089 16.3103C145.532 16.456 145.062 16.6162 144.681 16.7619C144.3 16.893 144.006 17.0533 143.816 17.1407C143.625 17.2427 143.522 17.3009 143.522 17.3009C143.522 17.3009 143.64 17.2864 143.86 17.2718C144.08 17.2572 144.388 17.2427 144.784 17.2281C145.033 17.2281 145.312 17.2135 145.62 17.2135C146.294 17.2135 147.115 17.2281 148.025 17.3009C148.684 17.3446 149.403 17.432 150.151 17.5194C150.884 17.6214 151.647 17.7525 152.424 17.9273C152.644 17.8108 152.879 17.6943 153.113 17.5631C153.26 17.4903 153.406 17.432 153.553 17.3592C153.832 17.2281 154.125 17.097 154.418 16.9804L154.536 16.9367L154.653 16.893L154.785 16.8493C155.005 16.7619 155.225 16.6891 155.46 16.6017L155.679 16.5288L155.767 16.4997L155.899 16.456L155.797 16.4269Z" fill="#85AF9A"/>
<path d="M168.584 25.8803C168.379 25.5307 168.1 25.1373 167.763 24.6712C167.602 24.4381 167.426 24.1904 167.221 23.9574C167.015 23.7097 166.795 23.4621 166.575 23.1998C166.355 22.923 166.106 22.6754 165.842 22.3986C165.578 22.1364 165.314 21.845 165.006 21.5828C164.713 21.306 164.405 21.0293 164.082 20.7525C163.76 20.4902 163.408 20.228 163.056 19.9512C162.704 19.689 162.323 19.4414 161.956 19.1792C161.575 18.9315 161.179 18.6984 160.768 18.4653C160.607 18.3779 160.445 18.2905 160.284 18.2031C159.903 18.2905 159.507 18.3925 159.155 18.4799C159.008 18.5236 158.862 18.5673 158.715 18.5965L158.7 18.611L158.598 18.6402L158.48 18.6693C158.304 18.713 158.128 18.7713 157.952 18.8295L157.351 19.0189C157.131 19.0918 156.941 19.1646 156.765 19.2229C156.955 19.2957 157.146 19.3831 157.337 19.4559C157.733 19.6162 158.128 19.791 158.524 19.9658C158.818 20.0969 159.096 20.2426 159.39 20.3737L159.566 20.4611L159.698 20.5194L159.742 20.5485C160.108 20.7379 160.46 20.9273 160.812 21.1167C161.179 21.3206 161.531 21.5246 161.897 21.7285C162.249 21.947 162.587 22.1655 162.924 22.3549C163.261 22.5734 163.584 22.7919 163.892 22.9959C164.214 23.1998 164.508 23.4183 164.801 23.6223C165.094 23.8262 165.387 24.0156 165.651 24.2341C166.194 24.6275 166.693 24.9917 167.118 25.3413C167.558 25.6763 167.939 25.9677 168.247 26.2299C168.863 26.7252 169.244 27.002 169.244 27.002C169.244 27.002 168.995 26.565 168.584 25.8803Z" fill="#85AF9A"/>
<path d="M168.922 17.1407C168.731 17.0533 168.438 16.9076 168.056 16.7619C167.675 16.6162 167.206 16.456 166.649 16.3103C166.106 16.1647 165.461 16.0335 164.772 15.9316C164.068 15.8296 163.305 15.7713 162.499 15.7422H162.176C161.457 15.7422 160.709 15.7713 159.932 15.8587C159.727 15.8879 159.522 15.9024 159.316 15.9316L159.126 15.9607L158.935 15.9898C158.363 16.0772 157.791 16.1938 157.219 16.3395L157.131 16.3686L156.999 16.3977L156.867 16.4269L156.794 16.4414L156.574 16.4997L156.545 16.5143L156.369 16.5725C156.207 16.6308 156.031 16.6745 155.87 16.7328L155.635 16.8056L155.416 16.8785L155.196 16.9659L154.844 17.097L154.726 17.1407L154.609 17.1844L154.536 17.2135C154.096 17.3883 153.67 17.5923 153.23 17.7962C153.084 17.8691 152.952 17.9419 152.805 18.0147L152.644 18.1022L152.483 18.1896C152.321 18.277 152.16 18.3644 151.999 18.4518C151.588 18.6849 151.192 18.9179 150.811 19.1656C150.43 19.4278 150.063 19.6755 149.711 19.9377C149.359 20.2145 149.022 20.4767 148.684 20.7389C148.362 21.0157 148.054 21.2925 147.761 21.5693C147.467 21.8315 147.189 22.1228 146.925 22.3996C146.661 22.6764 146.411 22.924 146.191 23.2008C145.971 23.4631 145.751 23.7253 145.546 23.9729C145.341 24.2206 145.18 24.4682 145.004 24.6867C144.666 25.1383 144.388 25.5462 144.182 25.8959C143.757 26.5805 143.537 26.9884 143.537 26.9884C143.537 26.9884 143.918 26.7116 144.534 26.2163C144.842 25.9541 145.224 25.6773 145.663 25.3277C146.089 24.9781 146.587 24.6285 147.13 24.2206C147.394 24.0166 147.687 23.8127 147.981 23.6087C148.274 23.4048 148.567 23.1717 148.89 22.9823C149.212 22.7784 149.535 22.5599 149.858 22.3413C150.195 22.1374 150.547 21.9189 150.884 21.7149C151.236 21.511 151.603 21.307 151.969 21.1031C152.336 20.9137 152.717 20.7098 153.084 20.5204L153.26 20.433L153.436 20.3456C153.7 20.2145 153.978 20.0834 154.242 19.9522C154.638 19.792 155.034 19.6026 155.43 19.4424C155.621 19.3695 155.811 19.2967 156.017 19.2093L156.075 19.1947L156.193 19.151L156.31 19.1073L156.383 19.0782L156.574 19.0199L156.647 18.9908L156.765 18.9471L156.97 18.8742L157.263 18.7723C157.469 18.714 157.674 18.6412 157.879 18.5829C158.026 18.5392 158.187 18.4955 158.348 18.4518L158.466 18.4226L158.598 18.3935C158.759 18.3498 158.935 18.3061 159.096 18.2478C159.39 18.175 159.683 18.1022 159.976 18.0439L160.152 18.0002L160.299 17.971L160.328 17.9565C161.105 17.7817 161.883 17.6506 162.616 17.5486C163.364 17.4466 164.068 17.3738 164.728 17.3301C165.637 17.2572 166.458 17.2427 167.133 17.2427C167.441 17.2427 167.719 17.2427 167.968 17.2572C168.364 17.2718 168.687 17.2864 168.892 17.3009C169.112 17.3155 169.23 17.3301 169.23 17.3301C169.23 17.3301 169.127 17.2281 168.922 17.1407Z" fill="#85AF9A"/>
<path d="M158.128 35.0263V38.5371H154.579V35.0263L138.639 25.3242C138.639 25.5719 138.756 25.805 138.961 25.9506L152.526 35.8858V42.2519C152.526 43.6504 153.289 44.9614 154.535 45.5878L154.565 45.6024L154.594 45.617V42.616H158.143V45.617L158.172 45.6024L158.201 45.5878C159.463 44.9614 160.21 43.6504 160.21 42.2519V35.8858L173.775 25.9506C173.981 25.805 174.098 25.5719 174.098 25.3242L158.128 35.0263ZM154.579 39.6879H158.128V41.4652H154.579V39.6879Z" fill="#85AF9A"/>
</svg>
