<svg width="328" height="234" viewBox="0 0 328 234" fill="none" xmlns="http://www.w3.org/2000/svg">
<g filter="url(#filter0_d_381_46843)">
<path d="M179.449 53.193L151.663 89.1261C150.79 90.4354 149.045 90.5808 147.735 89.5625L113.112 62.3581C111.802 61.4853 111.657 59.7395 112.675 58.4302L148.754 12.6047C149.627 11.2954 151.372 11.1499 152.682 12.1683L177.849 31.9533L179.449 53.193Z" fill="url(#paint0_linear_381_46843)"/>
</g>
<path d="M167.666 35.8812L150.936 22.7882C150.645 22.4972 150.499 22.0608 150.79 21.4789C151.081 21.1879 151.518 21.0424 152.1 21.3334L168.83 34.4264C169.121 34.7174 169.266 35.1538 168.975 35.7357C168.539 36.1721 168.102 36.1721 167.666 35.8812Z" fill="#CED6E2"/>
<path d="M154.281 31.8079L148.026 26.7161C147.735 26.4252 147.589 25.9888 147.88 25.4069C148.171 24.9704 148.608 24.9704 149.19 25.2614L155.445 30.3531C155.736 30.6441 155.882 31.0805 155.591 31.6624C155.154 32.0988 154.572 32.0988 154.281 31.8079Z" fill="#CED6E2"/>
<path d="M177.847 31.9541L170.137 41.7011C168.973 43.1559 169.41 45.1926 170.719 46.2109L179.593 53.1939" fill="#CED6E2"/>
<path d="M168.685 55.3743L159.956 48.6823L150.937 41.5539L142.644 35.0074C141.771 34.28 140.317 34.4254 139.589 35.4438L127.66 50.5735C126.933 51.4464 127.078 52.9011 127.951 53.6285L154.137 74.2864C155.01 75.0138 156.465 74.8683 157.192 73.8499L169.121 58.7202C169.849 57.4109 169.703 56.2471 168.685 55.3743ZM141.044 55.2288L143.663 51.7373L151.664 57.9929L149.045 61.4843L141.044 55.2288ZM148.318 62.5027L145.845 65.7032L137.844 59.4476L140.317 56.2471L148.318 62.5027ZM155.155 53.6285L152.537 57.12L144.535 50.8644L147.154 47.373L155.155 53.6285ZM147.881 46.3546L150.791 42.8632L158.792 49.1187L156.174 52.6102L147.881 46.3546ZM162.429 64.8303L153.555 57.8474L156.174 54.3559L165.048 61.3388L162.429 64.8303ZM143.517 49.9916L134.934 43.2996L137.553 39.8081L146.136 46.5001L143.517 49.9916ZM134.061 44.3179L142.644 51.0099L140.026 54.5014L131.442 47.8094L134.061 44.3179ZM152.828 58.8657L161.702 65.8487L159.083 69.3401L150.209 62.3572L152.828 58.8657ZM168.103 57.7019L165.921 60.466L157.047 53.483L159.665 49.9916L167.812 56.3926C168.394 56.6836 168.394 57.2655 168.103 57.7019ZM141.771 35.7347L149.627 41.9903L147.009 45.4818L138.425 38.7898L140.608 36.0257C140.899 35.5893 141.48 35.5893 141.771 35.7347ZM128.678 51.1554L130.57 48.8277L139.153 55.5197L136.68 58.7202L128.678 52.4647C128.387 52.1737 128.387 51.4463 128.678 51.1554ZM155.01 72.8316L146.863 66.4306L149.336 63.2301L158.21 70.213L156.174 72.6861C155.883 73.268 155.301 73.268 155.01 72.8316Z" fill="#CED6E2"/>
<path d="M247.166 76.1484H90.4766C87.2542 76.1484 84.4346 78.969 84.4346 82.1924V183.328C84.4346 186.551 87.2542 185.343 90.4766 185.343H246.763C249.986 185.343 252.805 186.551 252.805 183.328V82.1924C253.208 78.969 250.388 76.1484 247.166 76.1484Z" fill="#D5DDEA"/>
<path d="M241.9 82.0254H96.0809C93.082 82.0254 90.458 84.5504 90.458 87.4362V177.977C90.458 180.863 93.082 179.78 96.0809 179.78H241.525C244.524 179.78 247.148 180.863 247.148 177.977V87.4362C247.523 84.5504 244.899 82.0254 241.9 82.0254Z" fill="white"/>
<path d="M276.57 179.701V182.925C276.57 186.551 273.347 189.774 269.722 189.774H67.9189C64.2937 189.774 61.0713 186.551 61.0713 182.925V179.701H276.57Z" fill="#D5DDEA"/>
<path d="M187.552 179.701V180.91C187.552 182.925 185.941 184.939 183.524 184.939H153.716C151.702 184.939 149.688 183.328 149.688 180.91V179.701H187.552Z" fill="#E9EFF8"/>
<path d="M177.128 130.23H170.109V123.209C170.109 122.358 169.471 121.72 168.62 121.72C167.77 121.72 167.131 122.358 167.131 123.209V130.23H160.112C159.262 130.23 158.624 130.869 158.624 131.72C158.624 132.571 159.262 133.209 160.112 133.209H167.131V140.23C167.131 141.081 167.77 141.72 168.62 141.72C169.471 141.72 170.109 141.081 170.109 140.23V133.209H177.128C177.979 133.209 178.617 132.571 178.617 131.72C178.617 130.869 177.979 130.23 177.128 130.23Z" fill="url(#paint1_linear_381_46843)"/>
<g filter="url(#filter1_d_381_46843)">
<path d="M276.174 127.533L231.613 151.655C229.037 153.034 225.842 152.102 224.434 149.52L201.406 106.852C200.028 104.274 200.961 101.075 203.54 99.6652L248.1 75.5431C250.676 74.1637 253.872 75.0962 255.279 77.6779L278.338 120.349C279.715 122.927 278.75 126.153 276.174 127.533Z" fill="url(#paint2_linear_381_46843)"/>
</g>
<path d="M270.26 122.478L231.08 143.685C229.983 144.29 228.608 143.863 228.004 142.766L208.964 107.484C208.36 106.386 208.786 105.009 209.883 104.404L249.063 83.1969C250.16 82.5919 251.535 83.0182 252.139 84.116L271.179 119.398C271.783 120.496 271.356 121.873 270.26 122.478Z" fill="white"/>
<path d="M244.248 119.302L229.943 127.041L232.701 115.074L244.248 119.302Z" fill="#B0B7C4"/>
<path d="M256.071 112.894L235.481 124.053L239.462 106.828L256.071 112.894Z" fill="#CED6E2"/>
<path d="M227.559 113.409C229.243 113.597 230.761 112.382 230.949 110.696C231.138 109.01 229.925 107.49 228.24 107.302C226.556 107.114 225.038 108.329 224.85 110.015C224.661 111.702 225.874 113.221 227.559 113.409Z" fill="#B0B7C4"/>
<g filter="url(#filter2_d_381_46843)">
<path d="M281.059 136.72L230.398 137.722C227.476 137.767 225.064 135.472 224.997 132.533L224.099 84.0555C224.057 81.1326 226.353 78.7169 229.291 78.6472L279.952 77.6452C282.874 77.6005 285.286 79.8947 285.353 82.8342L286.276 131.328C286.318 134.251 283.98 136.675 281.059 136.72Z" fill="url(#paint3_linear_381_46843)"/>
</g>
<path d="M278.12 129.515L233.578 130.394C232.325 130.428 231.299 129.419 231.265 128.166L230.525 88.0816C230.492 86.8289 231.502 85.8008 232.754 85.7661L277.296 84.887C278.548 84.8524 279.575 85.8619 279.608 87.1145L280.349 127.199C280.382 128.452 279.372 129.48 278.12 129.515Z" fill="white"/>
<path d="M256.459 114.763L240.198 115.08L248.137 105.711L256.459 114.763Z" fill="#989FB0"/>
<path d="M269.907 114.491L246.492 114.965L257.929 101.484L269.907 114.491Z" fill="#CED6E2"/>
<path d="M244.333 101.872C245.744 102.811 247.65 102.428 248.59 101.016C249.531 99.6037 249.15 97.6972 247.739 96.7577C246.329 95.8183 244.423 96.2015 243.482 97.6138C242.541 99.026 242.923 100.933 244.333 101.872Z" fill="#989FB0"/>
<path d="M281.574 138.52L270.828 141.834L279.386 154.491L272.412 159.207L263.853 146.549L256.775 155.288L250.66 119.522L281.574 138.52Z" fill="url(#paint4_linear_381_46843)"/>
<g filter="url(#filter3_d_381_46843)">
<path d="M67.449 85.0514L95.894 117.859C96.8514 118.991 96.644 120.67 95.4864 121.652L62.4411 149.684C61.2835 150.666 59.5531 150.542 58.6392 149.461L22.6082 106.821C21.6509 105.688 21.8583 104.009 23.0159 103.027L46.9579 82.7179L67.449 85.0514Z" fill="url(#paint5_linear_381_46843)"/>
</g>
<path d="M46.9072 82.3613L54.7414 91.6146C55.8417 92.9142 57.8656 92.9856 59.1652 91.8853L67.3787 84.9314" fill="#CED6E2"/>
<g clip-path="url(#clip0_381_46843)">
<path d="M39.4485 89.4818L37.4512 91.1729L38.6136 92.5458L40.6109 90.8548L39.4485 89.4818Z" fill="#CED6E2"/>
<path d="M42.6277 89.1478L40.6304 90.8389L41.7928 92.2118L43.7901 90.5208L42.6277 89.1478Z" fill="#CED6E2"/>
<path d="M41.7571 92.2084L39.7598 93.8994L40.9222 95.2724L42.9195 93.5813L41.7571 92.2084Z" fill="#CED6E2"/>
<path d="M44.9363 91.8744L42.939 93.5654L44.1014 94.9384L46.0987 93.2474L44.9363 91.8744Z" fill="#CED6E2"/>
<path d="M44.0818 94.9545L42.0845 96.6455L43.2469 98.0185L45.2442 96.3274L44.0818 94.9545Z" fill="#CED6E2"/>
<path d="M47.261 94.6195L45.2637 96.3105L46.4261 97.6835L48.4234 95.9925L47.261 94.6195Z" fill="#CED6E2"/>
<path d="M46.3904 97.681L44.3931 99.3721L45.5555 100.745L47.5528 99.054L46.3904 97.681Z" fill="#CED6E2"/>
<path d="M49.5691 97.3461L47.5718 99.0371L48.7342 100.41L50.7315 98.719L49.5691 97.3461Z" fill="#CED6E2"/>
<path d="M48.7151 100.427L46.7178 102.118L47.8802 103.491L49.8775 101.8L48.7151 100.427Z" fill="#CED6E2"/>
<path d="M51.8943 100.092L49.897 101.783L51.0594 103.156L53.0567 101.465L51.8943 100.092Z" fill="#CED6E2"/>
<path d="M51.0232 103.154L49.0259 104.845L50.1883 106.218L52.1856 104.527L51.0232 103.154Z" fill="#CED6E2"/>
<path d="M54.2024 102.819L52.2051 104.51L53.3675 105.883L55.3648 104.192L54.2024 102.819Z" fill="#CED6E2"/>
<path d="M53.3484 105.899L51.3511 107.59L52.5135 108.963L54.5108 107.272L53.3484 105.899Z" fill="#CED6E2"/>
<path d="M56.511 105.545L54.5137 107.236L55.6761 108.609L57.6734 106.918L56.511 105.545Z" fill="#CED6E2"/>
<path d="M55.6565 108.625L53.6592 110.316L54.8216 111.689L56.8189 109.998L55.6565 108.625Z" fill="#CED6E2"/>
<path d="M58.8357 108.291L56.8384 109.982L58.0008 111.355L59.9981 109.664L58.8357 108.291Z" fill="#CED6E2"/>
<path d="M65.8647 124.808L71.3001 131.228L75.3142 127.829L69.8788 121.409L65.8647 124.808ZM74.2055 127.739L71.3938 130.119L69.8221 128.263L72.6339 125.882L74.2055 127.739Z" fill="#CED6E2"/>
</g>
<path d="M46.6141 226.051C46.6141 225.806 46.6354 225.518 46.6781 225.187C46.7207 224.856 46.8007 224.483 46.9181 224.067C47.0354 223.64 47.2114 223.166 47.4461 222.643L49.4141 223.331C49.2967 223.662 49.1954 223.966 49.1101 224.243C49.0247 224.51 48.9607 224.76 48.9181 224.995C48.8754 225.219 48.8541 225.443 48.8541 225.667C48.8541 226.19 48.9714 226.616 49.2061 226.947C49.4514 227.288 49.7927 227.539 50.2301 227.699C50.6674 227.87 51.1741 227.955 51.7501 227.955C52.4114 227.955 52.9554 227.864 53.3821 227.683C53.8087 227.512 54.1394 227.283 54.3741 226.995C54.6087 226.718 54.7741 226.414 54.8701 226.083C54.9661 225.742 55.0141 225.411 55.0141 225.091C55.0141 224.654 54.9394 224.136 54.7901 223.539C54.6407 222.931 54.3741 222.248 53.9901 221.491L56.0541 220.611C56.2674 220.984 56.4647 221.422 56.6461 221.923C56.8274 222.414 56.9714 222.926 57.0781 223.459C57.1954 223.992 57.2541 224.499 57.2541 224.979C57.2541 225.406 57.2007 225.859 57.0941 226.339C56.9874 226.808 56.8061 227.272 56.5501 227.731C56.3047 228.19 55.9687 228.6 55.5421 228.963C55.1154 229.336 54.5874 229.635 53.9581 229.859C53.3287 230.083 52.5767 230.195 51.7021 230.195C50.9981 230.195 50.3367 230.115 49.7181 229.955C49.1101 229.806 48.5714 229.566 48.1021 229.235C47.6434 228.904 47.2807 228.472 47.0141 227.939C46.7474 227.416 46.6141 226.787 46.6141 226.051ZM51.8301 219.971C51.4994 219.971 51.2167 219.859 50.9821 219.635C50.7581 219.411 50.6461 219.134 50.6461 218.803C50.6461 218.472 50.7581 218.19 50.9821 217.955C51.2167 217.72 51.4994 217.603 51.8301 217.603C52.1501 217.603 52.4221 217.72 52.6461 217.955C52.8807 218.19 52.9981 218.472 52.9981 218.803C52.9981 219.134 52.8807 219.411 52.6461 219.635C52.4221 219.859 52.1501 219.971 51.8301 219.971ZM65.8014 217.923C65.8014 217.571 65.7801 217.219 65.7374 216.867C65.7054 216.515 65.6628 216.184 65.6094 215.875C65.5561 215.555 65.5081 215.278 65.4654 215.043L67.7054 214.723C67.7481 214.936 67.7908 215.219 67.8334 215.571C67.8761 215.923 67.9134 216.296 67.9454 216.691C67.9774 217.075 67.9934 217.443 67.9934 217.795C67.9934 218.35 67.9454 218.872 67.8494 219.363C67.7534 219.854 67.6094 220.318 67.4174 220.755C67.2254 221.182 66.9854 221.592 66.6974 221.987L66.4094 222.371C66.1321 222.712 65.8068 223.048 65.4334 223.379C65.0708 223.71 64.6708 224.03 64.2334 224.339H65.2734C65.6361 224.339 65.9134 224.318 66.1054 224.275C66.2974 224.232 66.4254 224.174 66.4894 224.099C66.5641 224.014 66.6014 223.918 66.6014 223.811C66.6014 223.619 66.4361 223.336 66.1054 222.963C65.7748 222.579 65.3161 222.142 64.7294 221.651C64.1428 221.15 63.4548 220.622 62.6654 220.067C61.8868 219.502 61.0441 218.936 60.1374 218.371L61.3054 216.659C62.5641 217.438 63.6254 218.152 64.4894 218.803C65.3641 219.454 66.0788 220.046 66.6334 220.579C67.1988 221.112 67.6361 221.598 67.9454 222.035C68.2548 222.472 68.4681 222.867 68.5854 223.219C68.7028 223.56 68.7614 223.87 68.7614 224.147C68.7614 224.456 68.7134 224.755 68.6174 225.043C68.5214 225.32 68.3668 225.571 68.1534 225.795C67.9401 226.008 67.6628 226.179 67.3214 226.307C66.9801 226.435 66.5588 226.499 66.0574 226.499H61.3534V224.355C62.4521 223.566 63.3214 222.819 63.9614 222.115C64.6121 221.411 65.0814 220.718 65.3694 220.035C65.6574 219.352 65.8014 218.648 65.8014 217.923ZM62.7774 215.987C62.4574 215.987 62.1694 215.934 61.9134 215.827C61.6574 215.71 61.4228 215.598 61.2094 215.491C60.9961 215.384 60.7988 215.331 60.6174 215.331C60.4254 215.331 60.2494 215.379 60.0894 215.475C59.9401 215.571 59.7801 215.704 59.6094 215.875L58.8574 215.171C59.1454 214.808 59.4334 214.536 59.7214 214.355C60.0201 214.174 60.3188 214.083 60.6174 214.083C60.8841 214.083 61.1294 214.136 61.3534 214.243C61.5774 214.35 61.8014 214.456 62.0254 214.563C62.2601 214.67 62.5108 214.723 62.7774 214.723C62.9481 214.723 63.1081 214.696 63.2574 214.643C63.4068 214.579 63.5881 214.483 63.8014 214.355L64.3614 215.235C63.9774 215.566 63.6574 215.774 63.4014 215.859C63.1561 215.944 62.9481 215.987 62.7774 215.987ZM71.0481 226.499L70.7121 214.787H72.9521L73.2881 226.499H71.0481ZM78.8478 226.051C78.8478 225.806 78.8691 225.518 78.9118 225.187C78.9545 224.856 79.0345 224.483 79.1518 224.067C79.2691 223.64 79.4451 223.166 79.6798 222.643L81.6478 223.331C81.5305 223.662 81.4291 223.966 81.3438 224.243C81.2585 224.51 81.1945 224.76 81.1518 224.995C81.1091 225.219 81.0878 225.443 81.0878 225.667C81.0878 226.019 81.1625 226.334 81.3118 226.611C81.4718 226.899 81.7011 227.139 81.9998 227.331C82.2985 227.534 82.6611 227.688 83.0878 227.795C83.5251 227.902 84.0265 227.955 84.5918 227.955C85.1785 227.955 85.7011 227.928 86.1598 227.875C86.6291 227.822 87.0238 227.742 87.3438 227.635C87.6745 227.528 87.9251 227.39 88.0958 227.219C88.2665 227.059 88.3518 226.872 88.3518 226.659C88.3518 226.563 88.3145 226.472 88.2398 226.387C88.1758 226.302 88.0638 226.211 87.9038 226.115C87.7545 226.019 87.5518 225.918 87.2958 225.811C87.0505 225.704 86.7518 225.587 86.3998 225.459L86.9278 223.203C87.3865 223.395 87.8185 223.566 88.2238 223.715C88.6398 223.854 89.0345 223.971 89.4078 224.067C89.7811 224.152 90.1331 224.222 90.4638 224.275C90.7945 224.318 91.1038 224.339 91.3918 224.339C91.7972 224.339 92.0852 224.446 92.2558 224.659C92.4265 224.862 92.5118 225.118 92.5118 225.427C92.5118 225.758 92.3998 226.035 92.1758 226.259C91.9518 226.472 91.6372 226.579 91.2318 226.579C91.1465 226.579 91.0612 226.579 90.9758 226.579C90.9011 226.579 90.8211 226.579 90.7358 226.579C90.6611 226.579 90.5811 226.579 90.4958 226.579C90.5171 226.686 90.5278 226.776 90.5278 226.851C90.5278 226.936 90.5278 227.016 90.5278 227.091C90.5278 227.443 90.4052 227.8 90.1598 228.163C89.9251 228.526 89.5571 228.862 89.0558 229.171C88.5545 229.48 87.9145 229.726 87.1358 229.907C86.3678 230.099 85.4505 230.195 84.3838 230.195C83.2318 230.195 82.2398 230.046 81.4078 229.747C80.5865 229.459 79.9518 229.006 79.5038 228.387C79.0665 227.779 78.8478 227 78.8478 226.051ZM91.3887 226.579L91.5487 224.339C91.9327 224.339 92.2634 224.302 92.5407 224.227C92.818 224.152 93.0527 224.003 93.2447 223.779C93.4367 223.544 93.5967 223.203 93.7247 222.755C93.8634 222.307 93.986 221.71 94.0927 220.963L96.1887 221.315C96.1674 221.475 96.1354 221.662 96.0927 221.875C96.0607 222.088 96.0287 222.307 95.9967 222.531C95.9754 222.744 95.9647 222.947 95.9647 223.139C95.9647 223.331 96.002 223.502 96.0767 223.651C96.1514 223.8 96.2687 223.928 96.4287 224.035C96.5994 224.131 96.818 224.206 97.0847 224.259C97.362 224.312 97.698 224.339 98.0927 224.339C98.498 224.339 98.786 224.446 98.9567 224.659C99.1274 224.862 99.2127 225.118 99.2127 225.427C99.2127 225.758 99.1007 226.035 98.8767 226.259C98.6634 226.472 98.3487 226.579 97.9327 226.579C97.4527 226.579 97.0154 226.542 96.6207 226.467C96.2367 226.392 95.9007 226.27 95.6127 226.099C95.3354 225.918 95.106 225.683 94.9247 225.395C94.754 225.096 94.6474 224.734 94.6047 224.307H95.3727C95.1807 224.819 94.9354 225.23 94.6367 225.539C94.3487 225.838 94.0234 226.062 93.6607 226.211C93.298 226.36 92.9194 226.456 92.5247 226.499C92.1407 226.552 91.762 226.579 91.3887 226.579ZM96.5247 219.523C96.2154 219.523 95.9487 219.416 95.7247 219.203C95.5114 218.979 95.4047 218.718 95.4047 218.419C95.4047 218.11 95.5114 217.843 95.7247 217.619C95.9487 217.395 96.2154 217.283 96.5247 217.283C96.8234 217.283 97.0794 217.395 97.2927 217.619C97.506 217.843 97.6127 218.11 97.6127 218.419C97.6127 218.718 97.506 218.979 97.2927 219.203C97.0794 219.416 96.8234 219.523 96.5247 219.523ZM93.7567 219.507C93.4474 219.507 93.1807 219.4 92.9567 219.187C92.7434 218.963 92.6367 218.702 92.6367 218.403C92.6367 218.094 92.7434 217.827 92.9567 217.603C93.1807 217.379 93.4474 217.267 93.7567 217.267C94.0554 217.267 94.3114 217.379 94.5247 217.603C94.738 217.827 94.8447 218.094 94.8447 218.403C94.8447 218.702 94.738 218.963 94.5247 219.187C94.3114 219.4 94.0554 219.507 93.7567 219.507ZM98.0956 226.579L98.2556 224.339C98.8316 224.339 99.4022 224.307 99.9676 224.243C100.533 224.179 101.082 224.083 101.616 223.955C102.149 223.827 102.656 223.662 103.136 223.459C103.626 223.256 104.085 223.011 104.512 222.723C104.192 222.531 103.845 222.366 103.472 222.227C103.098 222.088 102.698 221.987 102.272 221.923C101.856 221.848 101.413 221.811 100.944 221.811C100.773 221.811 100.592 221.816 100.4 221.827C100.218 221.838 100.032 221.859 99.8396 221.891C99.6476 221.912 99.4556 221.944 99.2636 221.987L98.9436 219.795C99.2529 219.71 99.5782 219.651 99.9196 219.619C100.272 219.576 100.581 219.555 100.848 219.555C101.424 219.555 101.952 219.619 102.432 219.747C102.922 219.875 103.37 220.035 103.776 220.227C104.192 220.419 104.576 220.611 104.928 220.803C105.29 220.995 105.632 221.155 105.952 221.283C106.282 221.411 106.602 221.475 106.912 221.475H107.504L107.76 223.603C107.301 223.624 106.869 223.715 106.464 223.875C106.069 224.024 105.674 224.216 105.28 224.451C104.896 224.675 104.48 224.91 104.032 225.155C103.594 225.4 103.098 225.63 102.544 225.843C101.989 226.056 101.349 226.232 100.624 226.371C99.8982 226.51 99.0556 226.579 98.0956 226.579ZM119.247 226.835L119.663 224.595C120.697 224.595 121.599 224.568 122.367 224.515C123.135 224.451 123.769 224.36 124.271 224.243C124.783 224.115 125.161 223.95 125.407 223.747C125.663 223.544 125.791 223.299 125.791 223.011C125.791 222.627 125.727 222.168 125.599 221.635C125.471 221.091 125.305 220.542 125.103 219.987L127.199 219.379C127.337 219.742 127.471 220.142 127.599 220.579C127.727 221.006 127.828 221.438 127.903 221.875C127.988 222.302 128.031 222.702 128.031 223.075C128.031 223.736 127.887 224.307 127.599 224.787C127.311 225.256 126.831 225.646 126.159 225.955C125.497 226.254 124.601 226.472 123.471 226.611C122.34 226.76 120.932 226.835 119.247 226.835ZM119.231 226.835C118.079 226.835 117.103 226.744 116.303 226.563C115.513 226.392 114.868 226.147 114.367 225.827C113.876 225.496 113.519 225.112 113.295 224.675C113.071 224.238 112.959 223.758 112.959 223.235C112.959 222.894 112.985 222.552 113.039 222.211C113.103 221.859 113.177 221.518 113.263 221.187C113.359 220.856 113.444 220.558 113.519 220.291L115.519 220.755C115.476 220.947 115.428 221.155 115.375 221.379C115.321 221.603 115.279 221.822 115.247 222.035C115.215 222.238 115.199 222.424 115.199 222.595C115.199 222.99 115.337 223.342 115.615 223.651C115.903 223.95 116.372 224.184 117.023 224.355C117.673 224.515 118.548 224.595 119.647 224.595L119.967 226.323L119.231 226.835ZM121.871 219.523C121.561 219.523 121.295 219.416 121.071 219.203C120.857 218.979 120.751 218.718 120.751 218.419C120.751 218.11 120.857 217.843 121.071 217.619C121.295 217.395 121.561 217.283 121.871 217.283C122.169 217.283 122.425 217.395 122.639 217.619C122.852 217.843 122.959 218.11 122.959 218.419C122.959 218.718 122.852 218.979 122.639 219.203C122.425 219.416 122.169 219.523 121.871 219.523ZM119.103 219.507C118.793 219.507 118.527 219.4 118.303 219.187C118.089 218.963 117.983 218.702 117.983 218.403C117.983 218.094 118.089 217.827 118.303 217.603C118.527 217.379 118.793 217.267 119.103 217.267C119.401 217.267 119.657 217.379 119.871 217.603C120.084 217.827 120.191 218.094 120.191 218.403C120.191 218.702 120.084 218.963 119.871 219.187C119.657 219.4 119.401 219.507 119.103 219.507ZM134.069 226.579C133.077 226.579 132.309 226.478 131.765 226.275C131.232 226.072 130.859 225.758 130.645 225.331C130.432 224.894 130.309 224.344 130.277 223.683L129.941 214.787H132.181L132.517 222.611C132.539 223.102 132.592 223.47 132.677 223.715C132.763 223.96 132.923 224.126 133.157 224.211C133.403 224.296 133.76 224.339 134.229 224.339C134.635 224.339 134.923 224.446 135.093 224.659C135.275 224.862 135.365 225.118 135.365 225.427C135.365 225.758 135.253 226.035 135.029 226.259C134.805 226.472 134.485 226.579 134.069 226.579ZM134.251 226.579L134.411 224.339C134.795 224.339 135.126 224.302 135.403 224.227C135.681 224.152 135.915 224.003 136.107 223.779C136.299 223.544 136.459 223.203 136.587 222.755C136.726 222.307 136.849 221.71 136.955 220.963L139.051 221.315C139.03 221.475 138.998 221.662 138.955 221.875C138.923 222.088 138.891 222.307 138.859 222.531C138.838 222.744 138.827 222.947 138.827 223.139C138.827 223.331 138.865 223.502 138.939 223.651C139.014 223.8 139.131 223.928 139.291 224.035C139.462 224.131 139.681 224.206 139.947 224.259C140.225 224.312 140.561 224.339 140.955 224.339C141.361 224.339 141.649 224.446 141.819 224.659C141.99 224.862 142.075 225.118 142.075 225.427C142.075 225.758 141.963 226.035 141.739 226.259C141.526 226.472 141.211 226.579 140.795 226.579C140.315 226.579 139.878 226.542 139.483 226.467C139.099 226.392 138.763 226.27 138.475 226.099C138.198 225.918 137.969 225.683 137.787 225.395C137.617 225.096 137.51 224.734 137.467 224.307H138.235C138.043 224.819 137.798 225.23 137.499 225.539C137.211 225.838 136.886 226.062 136.523 226.211C136.161 226.36 135.782 226.456 135.387 226.499C135.003 226.552 134.625 226.579 134.251 226.579ZM138.715 230.291C138.406 230.291 138.139 230.179 137.915 229.955C137.702 229.742 137.595 229.486 137.595 229.187C137.595 228.878 137.702 228.611 137.915 228.387C138.139 228.163 138.406 228.051 138.715 228.051C139.014 228.051 139.27 228.163 139.483 228.387C139.697 228.611 139.803 228.878 139.803 229.187C139.803 229.486 139.697 229.742 139.483 229.955C139.27 230.179 139.014 230.291 138.715 230.291ZM135.947 230.291C135.638 230.291 135.371 230.179 135.147 229.955C134.934 229.742 134.827 229.486 134.827 229.187C134.827 228.878 134.934 228.611 135.147 228.387C135.371 228.163 135.638 228.051 135.947 228.051C136.246 228.051 136.502 228.163 136.715 228.387C136.929 228.611 137.035 228.878 137.035 229.187C137.035 229.486 136.929 229.742 136.715 229.955C136.502 230.179 136.246 230.291 135.947 230.291ZM151.422 226.579C150.931 226.579 150.473 226.542 150.046 226.467C149.63 226.392 149.246 226.264 148.894 226.083C148.542 225.891 148.227 225.63 147.95 225.299C147.683 224.968 147.459 224.552 147.278 224.051L148.542 223.043C148.734 223.384 148.969 223.651 149.246 223.843C149.523 224.024 149.854 224.152 150.238 224.227C150.622 224.302 151.07 224.339 151.582 224.339C151.987 224.339 152.275 224.446 152.446 224.659C152.617 224.862 152.702 225.118 152.702 225.427C152.702 225.758 152.59 226.035 152.366 226.259C152.153 226.472 151.838 226.579 151.422 226.579ZM140.958 226.579L141.118 224.339C141.694 224.339 142.265 224.307 142.83 224.243C143.395 224.179 143.945 224.083 144.478 223.955C145.011 223.827 145.518 223.662 145.998 223.459C146.489 223.256 146.947 223.011 147.374 222.723C147.054 222.531 146.707 222.366 146.334 222.227C145.961 222.088 145.561 221.987 145.134 221.923C144.718 221.848 144.275 221.811 143.806 221.811C143.635 221.811 143.454 221.816 143.262 221.827C143.081 221.838 142.894 221.859 142.702 221.891C142.51 221.912 142.318 221.944 142.126 221.987L141.806 219.795C142.115 219.71 142.441 219.651 142.782 219.619C143.134 219.576 143.443 219.555 143.71 219.555C144.286 219.555 144.814 219.619 145.294 219.747C145.785 219.875 146.233 220.035 146.638 220.227C147.054 220.419 147.438 220.611 147.79 220.803C148.153 220.995 148.494 221.155 148.814 221.283C149.145 221.411 149.465 221.475 149.774 221.475H150.366L150.622 223.603C150.163 223.624 149.731 223.715 149.326 223.875C148.931 224.024 148.537 224.216 148.142 224.451C147.758 224.675 147.342 224.91 146.894 225.155C146.457 225.4 145.961 225.63 145.406 225.843C144.851 226.056 144.211 226.232 143.486 226.371C142.761 226.51 141.918 226.579 140.958 226.579ZM145.486 230.179C145.177 230.179 144.91 230.072 144.686 229.859C144.473 229.646 144.366 229.384 144.366 229.075C144.366 228.766 144.473 228.494 144.686 228.259C144.91 228.035 145.177 227.923 145.486 227.923C145.795 227.923 146.057 228.035 146.27 228.259C146.494 228.494 146.606 228.766 146.606 229.075C146.606 229.384 146.494 229.646 146.27 229.859C146.057 230.072 145.795 230.179 145.486 230.179ZM151.587 226.579L151.747 224.339C152.387 224.339 152.877 224.307 153.219 224.243C153.56 224.179 153.795 224.062 153.923 223.891C154.061 223.71 154.131 223.454 154.131 223.123C154.131 222.824 154.088 222.467 154.003 222.051C153.928 221.635 153.827 221.203 153.699 220.755C153.581 220.307 153.453 219.896 153.315 219.523L155.523 218.915C155.661 219.278 155.795 219.699 155.923 220.179C156.051 220.659 156.157 221.155 156.243 221.667C156.328 222.168 156.371 222.654 156.371 223.123C156.371 223.848 156.253 224.44 156.019 224.899C155.784 225.347 155.453 225.694 155.027 225.939C154.611 226.184 154.109 226.355 153.523 226.451C152.936 226.536 152.291 226.579 151.587 226.579ZM155.923 217.619C155.613 217.619 155.347 217.512 155.123 217.299C154.909 217.075 154.803 216.814 154.803 216.515C154.803 216.206 154.909 215.939 155.123 215.715C155.347 215.491 155.613 215.379 155.923 215.379C156.221 215.379 156.477 215.491 156.691 215.715C156.904 215.939 157.011 216.206 157.011 216.515C157.011 216.814 156.904 217.075 156.691 217.299C156.477 217.512 156.221 217.619 155.923 217.619ZM153.155 217.603C152.845 217.603 152.579 217.496 152.355 217.283C152.141 217.059 152.035 216.798 152.035 216.499C152.035 216.19 152.141 215.923 152.355 215.699C152.579 215.475 152.845 215.363 153.155 215.363C153.453 215.363 153.709 215.475 153.923 215.699C154.136 215.923 154.243 216.19 154.243 216.499C154.243 216.798 154.136 217.059 153.923 217.283C153.709 217.496 153.453 217.603 153.155 217.603ZM158.777 226.499L158.441 214.787H160.681L161.017 226.499H158.777ZM161.882 230.195L161.066 228.211C161.631 228.019 162.148 227.795 162.618 227.539C163.098 227.283 163.514 227 163.866 226.691C164.218 226.382 164.49 226.046 164.682 225.683C164.874 225.31 164.97 224.91 164.97 224.483C164.97 224.035 164.868 223.544 164.666 223.011C164.463 222.478 164.218 221.934 163.93 221.379L166.026 220.371C166.218 220.702 166.383 221.059 166.522 221.443C166.671 221.816 166.794 222.152 166.89 222.451C166.986 222.75 167.05 222.952 167.082 223.059C167.231 223.571 167.434 223.912 167.69 224.083C167.956 224.254 168.383 224.339 168.97 224.339C169.375 224.339 169.663 224.446 169.834 224.659C170.015 224.862 170.106 225.118 170.106 225.427C170.106 225.758 169.994 226.035 169.77 226.259C169.546 226.472 169.226 226.579 168.81 226.579C168.372 226.579 167.988 226.515 167.658 226.387C167.327 226.259 167.06 226.072 166.858 225.827C166.666 225.582 166.543 225.294 166.49 224.963L167.082 225.299C167.018 225.864 166.831 226.398 166.522 226.899C166.223 227.411 165.834 227.88 165.354 228.307C164.874 228.734 164.335 229.107 163.738 229.427C163.14 229.747 162.522 230.003 161.882 230.195ZM168.989 226.579L169.149 224.339C169.533 224.339 169.863 224.302 170.141 224.227C170.418 224.152 170.653 224.003 170.845 223.779C171.037 223.544 171.197 223.203 171.325 222.755C171.463 222.307 171.586 221.71 171.693 220.963L173.789 221.315C173.767 221.475 173.735 221.662 173.693 221.875C173.661 222.088 173.629 222.307 173.597 222.531C173.575 222.744 173.565 222.947 173.565 223.139C173.565 223.331 173.602 223.502 173.677 223.651C173.751 223.8 173.869 223.928 174.029 224.035C174.199 224.131 174.418 224.206 174.685 224.259C174.962 224.312 175.298 224.339 175.693 224.339C176.098 224.339 176.386 224.446 176.557 224.659C176.727 224.862 176.813 225.118 176.813 225.427C176.813 225.758 176.701 226.035 176.477 226.259C176.263 226.472 175.949 226.579 175.533 226.579C175.053 226.579 174.615 226.542 174.221 226.467C173.837 226.392 173.501 226.27 173.213 226.099C172.935 225.918 172.706 225.683 172.525 225.395C172.354 225.096 172.247 224.734 172.205 224.307H172.973C172.781 224.819 172.535 225.23 172.237 225.539C171.949 225.838 171.623 226.062 171.261 226.211C170.898 226.36 170.519 226.456 170.125 226.499C169.741 226.552 169.362 226.579 168.989 226.579ZM174.125 219.523C173.815 219.523 173.549 219.416 173.325 219.203C173.111 218.979 173.005 218.718 173.005 218.419C173.005 218.11 173.111 217.843 173.325 217.619C173.549 217.395 173.815 217.283 174.125 217.283C174.423 217.283 174.679 217.395 174.893 217.619C175.106 217.843 175.213 218.11 175.213 218.419C175.213 218.718 175.106 218.979 174.893 219.203C174.679 219.416 174.423 219.523 174.125 219.523ZM171.357 219.507C171.047 219.507 170.781 219.4 170.557 219.187C170.343 218.963 170.237 218.702 170.237 218.403C170.237 218.094 170.343 217.827 170.557 217.603C170.781 217.379 171.047 217.267 171.357 217.267C171.655 217.267 171.911 217.379 172.125 217.603C172.338 217.827 172.445 218.094 172.445 218.403C172.445 218.702 172.338 218.963 172.125 219.187C171.911 219.4 171.655 219.507 171.357 219.507ZM175.696 226.579L175.856 224.339C176.208 224.339 176.496 224.312 176.72 224.259C176.944 224.195 177.125 224.062 177.264 223.859C177.413 223.646 177.541 223.331 177.648 222.915C177.765 222.488 177.893 221.912 178.032 221.187L180.112 221.571C180.08 221.731 180.042 221.918 180 222.131C179.957 222.344 179.92 222.563 179.888 222.787C179.856 223 179.84 223.192 179.84 223.363C179.84 223.662 179.936 223.902 180.128 224.083C180.32 224.254 180.682 224.339 181.216 224.339C181.482 224.339 181.712 224.312 181.904 224.259C182.106 224.195 182.277 224.062 182.416 223.859C182.565 223.646 182.693 223.32 182.8 222.883C182.917 222.435 183.029 221.832 183.136 221.075L185.248 221.411C185.205 221.656 185.162 221.918 185.12 222.195C185.077 222.472 185.04 222.728 185.008 222.963C184.976 223.198 184.96 223.39 184.96 223.539C184.96 223.678 184.997 223.811 185.072 223.939C185.157 224.056 185.306 224.152 185.52 224.227C185.744 224.302 186.058 224.339 186.464 224.339C186.752 224.339 186.997 224.302 187.2 224.227C187.413 224.152 187.573 224.03 187.68 223.859C187.797 223.688 187.856 223.464 187.856 223.187C187.856 222.792 187.765 222.275 187.584 221.635C187.402 220.995 187.189 220.323 186.944 219.619L189.2 218.947C189.37 219.406 189.52 219.896 189.648 220.419C189.786 220.931 189.893 221.432 189.968 221.923C190.053 222.403 190.096 222.824 190.096 223.187C190.096 223.731 190.01 224.216 189.84 224.643C189.669 225.059 189.429 225.411 189.12 225.699C188.81 225.987 188.442 226.206 188.016 226.355C187.589 226.504 187.12 226.579 186.608 226.579C185.989 226.579 185.482 226.52 185.088 226.403C184.693 226.275 184.389 226.067 184.176 225.779C183.973 225.48 183.84 225.075 183.776 224.563H184.32C184.096 225.192 183.845 225.651 183.568 225.939C183.29 226.216 182.96 226.392 182.576 226.467C182.202 226.542 181.733 226.579 181.168 226.579C180.816 226.579 180.453 226.542 180.08 226.467C179.717 226.382 179.392 226.19 179.104 225.891C178.816 225.592 178.602 225.128 178.464 224.499L179.328 224.467C179.104 225.096 178.81 225.56 178.448 225.859C178.096 226.158 177.69 226.355 177.232 226.451C176.773 226.536 176.261 226.579 175.696 226.579ZM192.339 226.499L192.003 214.787H194.243L194.579 226.499H192.339ZM200.138 226.051C200.138 225.806 200.16 225.518 200.202 225.187C200.245 224.856 200.325 224.483 200.442 224.067C200.56 223.64 200.736 223.166 200.97 222.643L202.938 223.331C202.821 223.662 202.72 223.966 202.634 224.243C202.549 224.51 202.485 224.76 202.442 224.995C202.4 225.219 202.378 225.443 202.378 225.667C202.378 225.987 202.448 226.286 202.586 226.563C202.725 226.84 202.933 227.08 203.21 227.283C203.488 227.496 203.829 227.662 204.234 227.779C204.65 227.896 205.13 227.955 205.674 227.955C206.293 227.955 206.837 227.896 207.306 227.779C207.786 227.672 208.186 227.528 208.506 227.347C208.837 227.176 209.088 226.995 209.258 226.803C209.429 226.611 209.514 226.435 209.514 226.275C209.514 226.147 209.424 226.035 209.242 225.939C209.072 225.843 208.842 225.747 208.554 225.651C208.277 225.544 207.978 225.427 207.658 225.299C207.349 225.171 207.05 225.011 206.762 224.819C206.485 224.627 206.256 224.392 206.074 224.115C205.904 223.838 205.818 223.502 205.818 223.107C205.818 222.702 205.925 222.259 206.138 221.779C206.352 221.288 206.656 220.824 207.05 220.387C207.445 219.939 207.914 219.576 208.458 219.299C209.013 219.011 209.621 218.867 210.282 218.867C210.752 218.867 211.178 218.942 211.562 219.091C211.957 219.24 212.288 219.411 212.554 219.603L211.722 221.475C211.498 221.326 211.258 221.214 211.002 221.139C210.746 221.054 210.501 221.011 210.266 221.011C209.968 221.011 209.68 221.07 209.402 221.187C209.136 221.304 208.896 221.459 208.682 221.651C208.48 221.832 208.32 222.03 208.202 222.243C208.085 222.456 208.026 222.659 208.026 222.851C208.026 223.043 208.117 223.214 208.298 223.363C208.49 223.502 208.736 223.635 209.034 223.763C209.333 223.88 209.648 224.003 209.978 224.131C210.309 224.259 210.624 224.403 210.922 224.563C211.221 224.723 211.461 224.915 211.642 225.139C211.834 225.363 211.93 225.635 211.93 225.955C211.93 226.414 211.786 226.888 211.498 227.379C211.221 227.88 210.805 228.344 210.25 228.771C209.696 229.198 209.013 229.539 208.202 229.795C207.402 230.062 206.474 230.195 205.418 230.195C204.65 230.195 203.946 230.104 203.306 229.923C202.666 229.752 202.106 229.491 201.626 229.139C201.157 228.798 200.789 228.366 200.522 227.843C200.266 227.331 200.138 226.734 200.138 226.051ZM206.874 233.907C206.565 233.907 206.298 233.795 206.074 233.571C205.861 233.358 205.754 233.102 205.754 232.803C205.754 232.494 205.861 232.227 206.074 232.003C206.298 231.779 206.565 231.667 206.874 231.667C207.173 231.667 207.429 231.779 207.642 232.003C207.856 232.227 207.962 232.494 207.962 232.803C207.962 233.102 207.856 233.358 207.642 233.571C207.429 233.795 207.173 233.907 206.874 233.907ZM204.106 233.907C203.797 233.907 203.53 233.795 203.306 233.571C203.093 233.358 202.986 233.102 202.986 232.803C202.986 232.494 203.093 232.227 203.306 232.003C203.53 231.779 203.797 231.667 204.106 231.667C204.405 231.667 204.661 231.779 204.874 232.003C205.088 232.227 205.194 232.494 205.194 232.803C205.194 233.102 205.088 233.358 204.874 233.571C204.661 233.795 204.405 233.907 204.106 233.907ZM214.271 226.499L213.967 215.907H216.207L216.511 226.499H214.271ZM213.391 214.883L213.119 213.763C213.492 213.699 213.77 213.646 213.951 213.603C214.143 213.56 214.346 213.512 214.559 213.459L214.399 213.859C214.122 213.763 213.855 213.576 213.599 213.299C213.354 213.011 213.231 212.686 213.231 212.323C213.231 211.939 213.316 211.63 213.487 211.395C213.658 211.16 213.876 210.99 214.143 210.883C214.41 210.776 214.687 210.723 214.975 210.723C215.135 210.723 215.284 210.734 215.423 210.755C215.572 210.776 215.706 210.808 215.823 210.851L215.695 212.003C215.588 211.982 215.482 211.96 215.375 211.939C215.268 211.918 215.151 211.907 215.023 211.907C214.884 211.907 214.756 211.955 214.639 212.051C214.532 212.136 214.479 212.243 214.479 212.371C214.479 212.552 214.543 212.712 214.671 212.851C214.799 212.99 214.948 213.102 215.119 213.187C215.3 213.262 215.45 213.304 215.567 213.315L214.687 213.411C214.975 213.336 215.247 213.262 215.503 213.187C215.759 213.102 215.999 213.016 216.223 212.931L216.543 214.003C216.276 214.099 215.962 214.206 215.599 214.323C215.247 214.43 214.879 214.531 214.495 214.627C214.122 214.723 213.754 214.808 213.391 214.883ZM228.44 226.835L228.856 224.595C229.869 224.606 230.685 224.579 231.304 224.515C231.933 224.44 232.408 224.307 232.728 224.115C233.058 223.912 233.272 223.63 233.368 223.267C233.474 222.894 233.512 222.419 233.48 221.843L233.128 214.787H235.368L235.72 221.955C235.752 222.595 235.826 223.086 235.944 223.427C236.061 223.768 236.237 224.008 236.472 224.147C236.706 224.275 237.016 224.339 237.4 224.339C237.794 224.339 238.077 224.446 238.248 224.659C238.429 224.862 238.52 225.118 238.52 225.427C238.52 225.758 238.408 226.035 238.184 226.259C237.96 226.472 237.645 226.579 237.24 226.579C236.77 226.579 236.349 226.52 235.976 226.403C235.602 226.286 235.293 226.083 235.048 225.795C234.802 225.496 234.637 225.096 234.552 224.595H235.272C235.026 225.118 234.69 225.534 234.264 225.843C233.848 226.152 233.346 226.376 232.76 226.515C232.184 226.664 231.533 226.755 230.808 226.787C230.082 226.83 229.293 226.846 228.44 226.835ZM227.672 223.043L227.256 221.459C227.629 221.363 227.933 221.278 228.168 221.203C228.413 221.128 228.594 221.054 228.712 220.979C228.829 220.904 228.888 220.83 228.888 220.755C228.888 220.659 228.84 220.558 228.744 220.451C228.648 220.344 228.541 220.222 228.424 220.083C228.306 219.944 228.2 219.79 228.104 219.619C228.008 219.448 227.96 219.251 227.96 219.027C227.96 218.76 228.034 218.51 228.184 218.275C228.333 218.03 228.573 217.795 228.904 217.571C229.245 217.336 229.693 217.107 230.248 216.883L230.936 218.307C230.488 218.488 230.184 218.648 230.024 218.787C229.874 218.915 229.8 219.038 229.8 219.155C229.8 219.251 229.848 219.363 229.944 219.491C230.04 219.619 230.146 219.763 230.264 219.923C230.392 220.072 230.504 220.243 230.6 220.435C230.696 220.616 230.744 220.814 230.744 221.027C230.744 221.198 230.706 221.374 230.632 221.555C230.568 221.736 230.429 221.912 230.216 222.083C230.013 222.254 229.709 222.419 229.304 222.579C228.898 222.739 228.354 222.894 227.672 223.043ZM228.44 226.835C227.288 226.835 226.312 226.744 225.512 226.563C224.722 226.392 224.077 226.147 223.576 225.827C223.085 225.496 222.728 225.112 222.504 224.675C222.28 224.238 222.168 223.758 222.168 223.235C222.168 222.894 222.194 222.552 222.248 222.211C222.312 221.859 222.386 221.518 222.472 221.187C222.568 220.856 222.653 220.558 222.728 220.291L224.728 220.755C224.685 220.947 224.637 221.155 224.584 221.379C224.53 221.603 224.488 221.822 224.456 222.035C224.424 222.238 224.408 222.424 224.408 222.595C224.408 222.99 224.546 223.342 224.824 223.651C225.112 223.95 225.581 224.184 226.232 224.355C226.882 224.515 227.757 224.595 228.856 224.595L229.176 226.323L228.44 226.835ZM237.394 226.579L237.554 224.339C238.194 224.339 238.684 224.307 239.026 224.243C239.367 224.179 239.602 224.062 239.73 223.891C239.868 223.71 239.938 223.454 239.938 223.123C239.938 222.824 239.895 222.467 239.81 222.051C239.735 221.635 239.634 221.203 239.506 220.755C239.388 220.307 239.26 219.896 239.122 219.523L241.33 218.915C241.468 219.278 241.602 219.699 241.73 220.179C241.858 220.659 241.964 221.155 242.05 221.667C242.135 222.168 242.178 222.654 242.178 223.123C242.178 223.848 242.06 224.44 241.826 224.899C241.591 225.347 241.26 225.694 240.834 225.939C240.418 226.184 239.916 226.355 239.33 226.451C238.743 226.536 238.098 226.579 237.394 226.579ZM241.346 230.291C241.036 230.291 240.77 230.179 240.546 229.955C240.332 229.742 240.226 229.486 240.226 229.187C240.226 228.878 240.332 228.611 240.546 228.387C240.77 228.163 241.036 228.051 241.346 228.051C241.644 228.051 241.9 228.163 242.114 228.387C242.327 228.611 242.434 228.878 242.434 229.187C242.434 229.486 242.327 229.742 242.114 229.955C241.9 230.179 241.644 230.291 241.346 230.291ZM238.578 230.291C238.268 230.291 238.002 230.179 237.778 229.955C237.564 229.742 237.458 229.486 237.458 229.187C237.458 228.878 237.564 228.611 237.778 228.387C238.002 228.163 238.268 228.051 238.578 228.051C238.876 228.051 239.132 228.163 239.346 228.387C239.559 228.611 239.666 228.878 239.666 229.187C239.666 229.486 239.559 229.742 239.346 229.955C239.132 230.179 238.876 230.291 238.578 230.291ZM246.792 224.339C247.272 224.339 247.64 224.296 247.896 224.211C248.152 224.126 248.328 224.014 248.424 223.875C248.52 223.736 248.568 223.587 248.568 223.427C248.568 223.171 248.493 222.872 248.344 222.531C248.205 222.19 248.029 221.832 247.816 221.459C247.602 221.086 247.378 220.728 247.144 220.387C246.92 220.046 246.717 219.747 246.536 219.491L248.44 218.227C248.898 218.846 249.293 219.459 249.624 220.067C249.954 220.664 250.221 221.219 250.424 221.731C250.637 222.243 250.786 222.68 250.872 223.043C250.957 223.384 251.085 223.651 251.256 223.843C251.437 224.024 251.645 224.152 251.88 224.227C252.114 224.302 252.349 224.339 252.584 224.339C252.989 224.339 253.277 224.446 253.448 224.659C253.629 224.862 253.72 225.118 253.72 225.427C253.72 225.758 253.608 226.035 253.384 226.259C253.17 226.472 252.85 226.579 252.424 226.579C251.954 226.579 251.544 226.515 251.192 226.387C250.84 226.259 250.541 226.056 250.296 225.779C250.05 225.502 249.842 225.15 249.672 224.723L250.648 224.931C250.562 225.23 250.365 225.507 250.056 225.763C249.757 226.008 249.357 226.211 248.856 226.371C248.365 226.52 247.784 226.595 247.112 226.595C246.792 226.595 246.434 226.568 246.04 226.515C245.656 226.462 245.272 226.382 244.888 226.275C244.514 226.168 244.173 226.03 243.864 225.859L244.648 223.827C245.042 223.998 245.421 224.126 245.784 224.211C246.157 224.296 246.493 224.339 246.792 224.339ZM252.604 226.579L252.764 224.339C253.255 224.339 253.607 224.291 253.82 224.195C254.034 224.088 254.162 223.896 254.204 223.619C254.247 223.331 254.258 222.915 254.236 222.371L253.948 214.787H256.204L256.524 222.531C256.546 223.15 256.519 223.71 256.444 224.211C256.38 224.702 256.215 225.123 255.948 225.475C255.692 225.827 255.292 226.099 254.748 226.291C254.215 226.483 253.5 226.579 252.604 226.579ZM267.131 230.211C266.363 230.211 265.67 230.12 265.051 229.939C264.432 229.768 263.899 229.507 263.451 229.155C263.003 228.803 262.656 228.366 262.411 227.843C262.176 227.331 262.059 226.734 262.059 226.051C262.059 225.806 262.08 225.518 262.123 225.187C262.166 224.856 262.246 224.483 262.363 224.067C262.48 223.64 262.656 223.166 262.891 222.643L264.859 223.331C264.742 223.662 264.64 223.966 264.555 224.243C264.47 224.51 264.406 224.76 264.363 224.995C264.32 225.219 264.299 225.443 264.299 225.667C264.299 226.083 264.395 226.467 264.587 226.819C264.779 227.171 265.088 227.448 265.515 227.651C265.942 227.864 266.502 227.971 267.195 227.971C267.835 227.971 268.368 227.896 268.795 227.747C269.222 227.608 269.558 227.411 269.803 227.155C270.048 226.91 270.224 226.622 270.331 226.291C270.438 225.96 270.491 225.603 270.491 225.219C270.491 224.92 270.454 224.584 270.379 224.211C270.315 223.838 270.219 223.432 270.091 222.995C269.963 222.547 269.819 222.078 269.659 221.587L271.899 221.011C272.048 221.63 272.166 222.11 272.251 222.451C272.347 222.792 272.422 223.048 272.475 223.219C272.582 223.539 272.71 223.784 272.859 223.955C273.019 224.115 273.195 224.222 273.387 224.275C273.59 224.328 273.814 224.355 274.059 224.355C274.262 224.355 274.448 224.323 274.619 224.259C274.79 224.195 274.944 224.062 275.083 223.859C275.232 223.646 275.366 223.32 275.483 222.883C275.6 222.446 275.707 221.843 275.803 221.075L277.915 221.411C277.872 221.656 277.83 221.918 277.787 222.195C277.744 222.472 277.707 222.734 277.675 222.979C277.643 223.214 277.627 223.406 277.627 223.555C277.627 223.694 277.664 223.822 277.739 223.939C277.824 224.056 277.974 224.152 278.187 224.227C278.4 224.302 278.704 224.339 279.099 224.339C279.59 224.339 279.947 224.238 280.171 224.035C280.406 223.822 280.523 223.502 280.523 223.075C280.523 222.83 280.518 222.568 280.507 222.291C280.496 222.003 280.475 221.683 280.443 221.331C280.422 220.968 280.379 220.558 280.315 220.099L282.379 219.939C282.464 220.931 282.56 221.72 282.667 222.307C282.774 222.894 282.912 223.336 283.083 223.635C283.264 223.923 283.494 224.115 283.771 224.211C284.048 224.296 284.395 224.339 284.811 224.339C285.216 224.339 285.504 224.446 285.675 224.659C285.856 224.862 285.947 225.118 285.947 225.427C285.947 225.758 285.835 226.035 285.611 226.259C285.387 226.472 285.067 226.579 284.651 226.579C284.203 226.579 283.771 226.52 283.355 226.403C282.939 226.286 282.571 226.078 282.251 225.779C281.942 225.47 281.707 225.038 281.547 224.483L282.155 224.579C282.016 225.155 281.782 225.587 281.451 225.875C281.131 226.163 280.768 226.355 280.363 226.451C279.958 226.536 279.552 226.579 279.147 226.579C278.614 226.579 278.139 226.499 277.723 226.339C277.318 226.179 276.998 225.95 276.763 225.651C276.539 225.352 276.432 224.99 276.443 224.563H276.987C276.827 225.15 276.608 225.587 276.331 225.875C276.054 226.163 275.744 226.355 275.403 226.451C275.062 226.536 274.715 226.579 274.363 226.579C274.086 226.579 273.819 226.552 273.563 226.499C273.307 226.446 273.072 226.36 272.859 226.243C272.656 226.115 272.48 225.95 272.331 225.747C272.182 225.534 272.08 225.278 272.027 224.979L272.619 225.619C272.598 226.344 272.454 226.99 272.187 227.555C271.92 228.12 271.547 228.6 271.067 228.995C270.598 229.39 270.027 229.688 269.355 229.891C268.694 230.104 267.952 230.211 267.131 230.211ZM284.834 226.579L284.994 224.339C285.378 224.339 285.709 224.302 285.986 224.227C286.264 224.152 286.498 224.003 286.69 223.779C286.882 223.544 287.042 223.203 287.17 222.755C287.309 222.307 287.432 221.71 287.538 220.963L289.634 221.315C289.613 221.475 289.581 221.662 289.538 221.875C289.506 222.088 289.474 222.307 289.442 222.531C289.421 222.744 289.41 222.947 289.41 223.139C289.41 223.331 289.448 223.502 289.522 223.651C289.597 223.8 289.714 223.928 289.874 224.035C290.045 224.131 290.264 224.206 290.53 224.259C290.808 224.312 291.144 224.339 291.538 224.339C291.944 224.339 292.232 224.446 292.402 224.659C292.573 224.862 292.658 225.118 292.658 225.427C292.658 225.758 292.546 226.035 292.322 226.259C292.109 226.472 291.794 226.579 291.378 226.579C290.898 226.579 290.461 226.542 290.066 226.467C289.682 226.392 289.346 226.27 289.058 226.099C288.781 225.918 288.552 225.683 288.37 225.395C288.2 225.096 288.093 224.734 288.05 224.307H288.818C288.626 224.819 288.381 225.23 288.082 225.539C287.794 225.838 287.469 226.062 287.106 226.211C286.744 226.36 286.365 226.456 285.97 226.499C285.586 226.552 285.208 226.579 284.834 226.579ZM289.298 230.291C288.989 230.291 288.722 230.179 288.498 229.955C288.285 229.742 288.178 229.486 288.178 229.187C288.178 228.878 288.285 228.611 288.498 228.387C288.722 228.163 288.989 228.051 289.298 228.051C289.597 228.051 289.853 228.163 290.066 228.387C290.28 228.611 290.386 228.878 290.386 229.187C290.386 229.486 290.28 229.742 290.066 229.955C289.853 230.179 289.597 230.291 289.298 230.291ZM286.53 230.291C286.221 230.291 285.954 230.179 285.73 229.955C285.517 229.742 285.41 229.486 285.41 229.187C285.41 228.878 285.517 228.611 285.73 228.387C285.954 228.163 286.221 228.051 286.53 228.051C286.829 228.051 287.085 228.163 287.298 228.387C287.512 228.611 287.618 228.878 287.618 229.187C287.618 229.486 287.512 229.742 287.298 229.955C287.085 230.179 286.829 230.291 286.53 230.291ZM291.541 226.579L291.701 224.339C292.192 224.339 292.544 224.291 292.757 224.195C292.971 224.088 293.099 223.896 293.141 223.619C293.184 223.331 293.195 222.915 293.173 222.371L292.885 214.787H295.141L295.461 222.531C295.483 223.15 295.456 223.71 295.381 224.211C295.317 224.702 295.152 225.123 294.885 225.475C294.629 225.827 294.229 226.099 293.685 226.291C293.152 226.483 292.437 226.579 291.541 226.579Z" fill="#9F9F9F"/>
<defs>
<filter id="filter0_d_381_46843" x="90.0068" y="0.5" width="111.442" height="122.73" filterUnits="userSpaceOnUse" color-interpolation-filters="sRGB">
<feFlood flood-opacity="0" result="BackgroundImageFix"/>
<feColorMatrix in="SourceAlpha" type="matrix" values="0 0 0 0 0 0 0 0 0 0 0 0 0 0 0 0 0 0 127 0" result="hardAlpha"/>
<feOffset dy="11"/>
<feGaussianBlur stdDeviation="11"/>
<feColorMatrix type="matrix" values="0 0 0 0 0.397708 0 0 0 0 0.47749 0 0 0 0 0.575 0 0 0 0.27 0"/>
<feBlend mode="normal" in2="BackgroundImageFix" result="effect1_dropShadow_381_46843"/>
<feBlend mode="normal" in="SourceGraphic" in2="effect1_dropShadow_381_46843" result="shape"/>
</filter>
<filter id="filter1_d_381_46843" x="178.771" y="63.9072" width="122.194" height="121.384" filterUnits="userSpaceOnUse" color-interpolation-filters="sRGB">
<feFlood flood-opacity="0" result="BackgroundImageFix"/>
<feColorMatrix in="SourceAlpha" type="matrix" values="0 0 0 0 0 0 0 0 0 0 0 0 0 0 0 0 0 0 127 0" result="hardAlpha"/>
<feOffset dy="11"/>
<feGaussianBlur stdDeviation="11"/>
<feColorMatrix type="matrix" values="0 0 0 0 0.397708 0 0 0 0 0.47749 0 0 0 0 0.575 0 0 0 0.27 0"/>
<feBlend mode="normal" in2="BackgroundImageFix" result="effect1_dropShadow_381_46843"/>
<feBlend mode="normal" in="SourceGraphic" in2="effect1_dropShadow_381_46843" result="shape"/>
</filter>
<filter id="filter2_d_381_46843" x="202.099" y="66.6445" width="106.178" height="104.078" filterUnits="userSpaceOnUse" color-interpolation-filters="sRGB">
<feFlood flood-opacity="0" result="BackgroundImageFix"/>
<feColorMatrix in="SourceAlpha" type="matrix" values="0 0 0 0 0 0 0 0 0 0 0 0 0 0 0 0 0 0 127 0" result="hardAlpha"/>
<feOffset dy="11"/>
<feGaussianBlur stdDeviation="11"/>
<feColorMatrix type="matrix" values="0 0 0 0 0.397708 0 0 0 0 0.47749 0 0 0 0 0.575 0 0 0 0.27 0"/>
<feBlend mode="normal" in2="BackgroundImageFix" result="effect1_dropShadow_381_46843"/>
<feBlend mode="normal" in="SourceGraphic" in2="effect1_dropShadow_381_46843" result="shape"/>
</filter>
<filter id="filter3_d_381_46843" x="0.00244141" y="71.7178" width="118.498" height="111.634" filterUnits="userSpaceOnUse" color-interpolation-filters="sRGB">
<feFlood flood-opacity="0" result="BackgroundImageFix"/>
<feColorMatrix in="SourceAlpha" type="matrix" values="0 0 0 0 0 0 0 0 0 0 0 0 0 0 0 0 0 0 127 0" result="hardAlpha"/>
<feOffset dy="11"/>
<feGaussianBlur stdDeviation="11"/>
<feColorMatrix type="matrix" values="0 0 0 0 0.397708 0 0 0 0 0.47749 0 0 0 0 0.575 0 0 0 0.27 0"/>
<feBlend mode="normal" in2="BackgroundImageFix" result="effect1_dropShadow_381_46843"/>
<feBlend mode="normal" in="SourceGraphic" in2="effect1_dropShadow_381_46843" result="shape"/>
</filter>
<linearGradient id="paint0_linear_381_46843" x1="145.706" y1="9.67888" x2="145.706" y2="91.0796" gradientUnits="userSpaceOnUse">
<stop stop-color="#FDFEFF"/>
<stop offset="0.9964" stop-color="#ECF0F5"/>
</linearGradient>
<linearGradient id="paint1_linear_381_46843" x1="158.614" y1="131.722" x2="178.621" y2="131.722" gradientUnits="userSpaceOnUse">
<stop stop-color="#B0BACC"/>
<stop offset="1" stop-color="#969EAE"/>
</linearGradient>
<linearGradient id="paint2_linear_381_46843" x1="244.446" y1="72.3377" x2="235.345" y2="153.883" gradientUnits="userSpaceOnUse">
<stop stop-color="#FDFEFF"/>
<stop offset="0.9964" stop-color="#ECF0F5"/>
</linearGradient>
<linearGradient id="paint3_linear_381_46843" x1="278.175" y1="73.1209" x2="232.692" y2="141.413" gradientUnits="userSpaceOnUse">
<stop stop-color="#FDFEFF"/>
<stop offset="0.9964" stop-color="#ECF0F5"/>
</linearGradient>
<linearGradient id="paint4_linear_381_46843" x1="250.872" y1="146.581" x2="275.686" y2="129.803" gradientUnits="userSpaceOnUse">
<stop stop-color="#B0BACC"/>
<stop offset="1" stop-color="#969EAE"/>
</linearGradient>
<linearGradient id="paint5_linear_381_46843" x1="38.6144" y1="87.9426" x2="79.468" y2="136.104" gradientUnits="userSpaceOnUse">
<stop stop-color="#FDFEFF"/>
<stop offset="0.9964" stop-color="#ECF0F5"/>
</linearGradient>
<clipPath id="clip0_381_46843">
<rect width="17.7095" height="52.4474" fill="white" transform="translate(32.7393 95.1621) rotate(-40.2525)"/>
</clipPath>
</defs>
</svg>
