<svg preserveAspectRatio="none" width="100%" height="100%" overflow="visible" style="display: block;" viewBox="0 0 15 15" fill="none" xmlns="http://www.w3.org/2000/svg">
<g id="add-circle">
<path id="Vector" d="M7.5 14.2188C3.79375 14.2188 0.78125 11.2062 0.78125 7.5C0.78125 3.79375 3.79375 0.78125 7.5 0.78125C11.2062 0.78125 14.2188 3.79375 14.2188 7.5C14.2188 11.2062 11.2062 14.2188 7.5 14.2188ZM7.5 1.71875C4.3125 1.71875 1.71875 4.3125 1.71875 7.5C1.71875 10.6875 4.3125 13.2812 7.5 13.2812C10.6875 13.2812 13.2812 10.6875 13.2812 7.5C13.2812 4.3125 10.6875 1.71875 7.5 1.71875Z" fill="var(--fill-0, #00665E)"/>
<path id="Vector_2" d="M10 7.96875H5C4.74375 7.96875 4.53125 7.75625 4.53125 7.5C4.53125 7.24375 4.74375 7.03125 5 7.03125H10C10.2562 7.03125 10.4688 7.24375 10.4688 7.5C10.4688 7.75625 10.2562 7.96875 10 7.96875Z" fill="var(--fill-0, #00665E)"/>
<path id="Vector_3" d="M7.5 10.4688C7.24375 10.4688 7.03125 10.2562 7.03125 10V5C7.03125 4.74375 7.24375 4.53125 7.5 4.53125C7.75625 4.53125 7.96875 4.74375 7.96875 5V10C7.96875 10.2562 7.75625 10.4688 7.5 10.4688Z" fill="var(--fill-0, #00665E)"/>
<g id="Vector_4" opacity="0">
</g>
</g>
</svg>
