<svg width="20" height="20" viewBox="0 0 20 20" fill="none" xmlns="http://www.w3.org/2000/svg">
<path opacity="0.4" d="M17.0833 8.49199H14.6749C12.6999 8.49199 11.0916 6.88366 11.0916 4.90866V2.50033C11.0916 2.04199 10.7166 1.66699 10.2583 1.66699H6.72492C4.15825 1.66699 2.08325 3.33366 2.08325 6.30866V13.692C2.08325 16.667 4.15825 18.3337 6.72492 18.3337H13.2749C15.8416 18.3337 17.9166 16.667 17.9166 13.692V9.32533C17.9166 8.86699 17.5416 8.49199 17.0833 8.49199Z" fill="#00665E"/>
<path d="M13.1667 1.84207C12.8251 1.5004 12.2334 1.73373 12.2334 2.20873V5.11707C12.2334 6.33373 13.2667 7.34207 14.5251 7.34207C15.3167 7.3504 16.4167 7.3504 17.3584 7.3504C17.8334 7.3504 18.0834 6.79207 17.7501 6.45873C16.5501 5.2504 14.4001 3.0754 13.1667 1.84207Z" fill="#00665E"/>
<path d="M11.25 11.458H6.25C5.90833 11.458 5.625 11.1747 5.625 10.833C5.625 10.4913 5.90833 10.208 6.25 10.208H11.25C11.5917 10.208 11.875 10.4913 11.875 10.833C11.875 11.1747 11.5917 11.458 11.25 11.458Z" fill="#00665E"/>
<path d="M9.58333 14.792H6.25C5.90833 14.792 5.625 14.5087 5.625 14.167C5.625 13.8253 5.90833 13.542 6.25 13.542H9.58333C9.925 13.542 10.2083 13.8253 10.2083 14.167C10.2083 14.5087 9.925 14.792 9.58333 14.792Z" fill="#00665E"/>
</svg>
