<svg xmlns="http://www.w3.org/2000/svg" width="17" height="17" viewBox="0 0 17 17" fill="none">
  <path d="M3.23952 8.75686C3.23952 9.56949 3.23952 10.3821 3.23952 11.1948C3.23952 11.4523 3.23952 11.7097 3.23952 11.9672C3.23952 12.1442 3.23683 12.3202 3.25896 12.4964C3.24927 12.4243 3.23959 12.3523 3.22989 12.2802C3.25712 12.4808 3.3094 12.6757 3.38648 12.863C3.35913 12.7982 3.33179 12.7334 3.30447 12.6687C3.38153 12.8508 3.48036 13.0215 3.59982 13.1791C3.55742 13.1242 3.51502 13.0693 3.47262 13.0144C3.59723 13.1756 3.74094 13.3193 3.90212 13.4439C3.84724 13.4015 3.79237 13.3591 3.73748 13.3167C3.89508 13.4362 4.06573 13.535 4.2479 13.6121C4.18312 13.5847 4.11834 13.5574 4.05358 13.5301C4.24079 13.6072 4.43575 13.6594 4.63636 13.6867C4.56426 13.677 4.49217 13.6673 4.42011 13.6576C4.6336 13.6844 4.85032 13.677 5.06513 13.677C5.42302 13.677 5.78092 13.677 6.13883 13.677C7.19064 13.677 8.24245 13.677 9.29426 13.677C10.1254 13.677 10.9566 13.677 11.7877 13.677C11.9792 13.677 12.1704 13.6815 12.3609 13.6576C12.2888 13.6673 12.2167 13.677 12.1447 13.6867C12.3453 13.6594 12.5402 13.6072 12.7274 13.5301C12.6627 13.5574 12.5979 13.5847 12.5331 13.6121C12.7153 13.535 12.8859 13.4362 13.0436 13.3167C12.9887 13.3591 12.9338 13.4015 12.8789 13.4439C13.0401 13.3193 13.1838 13.1756 13.3084 13.0144C13.266 13.0693 13.2236 13.1242 13.1812 13.1791C13.3007 13.0215 13.3995 12.8508 13.4766 12.6687C13.4492 12.7334 13.4219 12.7982 13.3946 12.863C13.4716 12.6757 13.5239 12.4808 13.5511 12.2802C13.5415 12.3523 13.5318 12.4244 13.5221 12.4964C13.5489 12.2829 13.5415 12.0662 13.5415 11.8514C13.5415 11.4935 13.5415 11.1356 13.5415 10.7777C13.5415 9.72591 13.5415 8.67409 13.5415 7.62228C13.5415 6.79114 13.5415 5.95998 13.5415 5.12882C13.5415 4.93736 13.546 4.74609 13.5221 4.5556C13.5318 4.62769 13.5415 4.69977 13.5511 4.77186C13.5239 4.57124 13.4716 4.37629 13.3946 4.18907C13.4219 4.25385 13.4492 4.31862 13.4766 4.3834C13.3995 4.20124 13.3007 4.03058 13.1812 3.87298C13.2236 3.92787 13.266 3.98273 13.3084 4.03762C13.1838 3.87643 13.0401 3.73273 12.8789 3.60812C12.9338 3.65052 12.9887 3.69292 13.0436 3.73532C12.8859 3.61584 12.7153 3.51701 12.5331 3.43996C12.5979 3.46729 12.6627 3.49463 12.7274 3.52196C12.5402 3.44489 12.3453 3.3926 12.1447 3.36539C12.2167 3.37507 12.2888 3.38476 12.3609 3.39444C12.0466 3.355 11.7199 3.375 11.404 3.375C10.8779 3.375 10.3518 3.375 9.82573 3.375C9.42427 3.375 9.02281 3.375 8.62135 3.375C8.1779 3.375 7.80787 3.00497 7.80787 2.56152C7.80787 2.11808 8.1779 1.74805 8.62135 1.74805C9.43398 1.74805 10.2466 1.74805 11.0592 1.74805C11.3889 1.74805 11.7186 1.74805 12.0483 1.74805C12.9033 1.74805 13.7528 2.10496 14.3333 2.73689C14.8701 3.32118 15.1685 4.08314 15.1685 4.87711C15.1685 5.08408 15.1685 5.29105 15.1685 5.49801C15.1685 6.44655 15.1685 7.39508 15.1685 8.34363C15.1685 9.33631 15.1685 10.329 15.1685 11.3217C15.1685 11.5838 15.1685 11.8459 15.1685 12.1081C15.1685 12.6981 15.0356 13.2728 14.733 13.7837C14.4827 14.2064 14.1308 14.5532 13.7223 14.8222C13.5174 14.9571 13.286 15.0549 13.0569 15.139C12.8178 15.2267 12.5675 15.2609 12.3155 15.29C12.113 15.3134 11.9043 15.304 11.7007 15.304C10.8337 15.304 9.96664 15.304 9.09962 15.304C8.0601 15.304 7.02056 15.304 5.98102 15.304C5.64729 15.304 5.3136 15.304 4.97988 15.304C4.63564 15.304 4.2981 15.2906 3.9591 15.2098C3.47415 15.0943 3.04576 14.8426 2.66687 14.5262C2.47811 14.3685 2.32984 14.1781 2.18183 13.9828C2.07152 13.8373 1.98092 13.6774 1.90826 13.5101C1.80762 13.2785 1.7186 13.0518 1.67467 12.8027C1.63923 12.6018 1.6126 12.3959 1.6126 12.1913C1.6126 12.0916 1.6126 11.9919 1.6126 11.8921C1.6126 10.9387 1.6126 9.98533 1.6126 9.03192C1.6126 8.94023 1.6126 8.84852 1.6126 8.75683C1.6126 8.31338 1.98263 7.94335 2.42608 7.94335C2.86952 7.94335 3.23952 8.31342 3.23952 8.75686Z" fill="#00665E"/>
  <path d="M5.75781 3.375C4.93859 3.375 4.1194 3.375 3.3002 3.375C3.00904 3.375 2.71788 3.375 2.42673 3.375C1.98328 3.375 1.61325 3.00497 1.61325 2.56152C1.61325 2.11808 1.98328 1.74805 2.42673 1.74805C3.24593 1.74805 4.06513 1.74805 4.88435 1.74805C5.1755 1.74805 5.46665 1.74805 5.75781 1.74805C6.20126 1.74805 6.57129 2.11808 6.57129 2.56152C6.57129 3.00497 6.20126 3.375 5.75781 3.375Z" fill="#00665E"/>
  <path d="M1.61279 5.89263C1.61279 5.07342 1.61279 4.25422 1.61279 3.435C1.61279 3.14384 1.61279 2.85268 1.61279 2.56152C1.61279 2.11808 1.98283 1.74805 2.42627 1.74805C2.86971 1.74805 3.23975 2.11808 3.23975 2.56152C3.23975 3.38073 3.23975 4.19993 3.23975 5.01915C3.23975 5.31031 3.23975 5.60147 3.23975 5.89263C3.23975 6.33607 2.86971 6.7061 2.42627 6.7061C1.98283 6.7061 1.61279 6.33607 1.61279 5.89263Z" fill="#00665E"/>
  <path d="M7.80298 9.08586C7.46388 8.74676 7.12479 8.40767 6.78571 8.06857C6.05655 7.33943 5.32739 6.61027 4.59824 5.88111C3.91121 5.19409 3.22419 4.50709 2.53719 3.82008C2.30835 3.59123 2.07951 3.36239 1.85064 3.13354C1.53724 2.82013 1.53724 2.29652 1.85064 1.9831C2.16405 1.6697 2.68768 1.6697 3.00108 1.9831C3.34019 2.3222 3.67927 2.66129 4.01836 3.00039C4.74752 3.72953 5.47667 4.45869 6.20583 5.18785C6.89285 5.87487 7.57988 6.56188 8.26688 7.24888C8.49572 7.47774 8.72457 7.70657 8.95342 7.93542C9.26683 8.24883 9.26683 8.77246 8.95342 9.08586C8.64002 9.39927 8.11639 9.39927 7.80298 9.08586Z" fill="#00665E"/>
</svg>
