<svg xmlns="http://www.w3.org/2000/svg" width="19" height="20" viewBox="0 0 19 20" fill="none">
  <path d="M15.0458 0.833196H7.49248C6.54433 0.833196 5.63502 1.20985 4.96457 1.88029C4.29413 2.55073 3.91748 3.46005 3.91748 4.4082V4.49986H11.5075C12.4556 4.49986 13.3649 4.87651 14.0354 5.54696C14.7058 6.2174 15.0825 7.12671 15.0825 8.07486V13.4282C15.5538 13.4306 16.021 13.3396 16.457 13.1603C16.8929 12.9811 17.289 12.7171 17.6223 12.3838C17.9556 12.0505 18.2195 11.6544 18.3988 11.2185C18.578 10.7826 18.6691 10.3154 18.6666 9.84403V4.38986C18.6631 3.9184 18.5665 3.45228 18.3825 3.0182C18.1984 2.58413 17.9306 2.19062 17.5942 1.86023C17.2579 1.52984 16.8596 1.26906 16.4223 1.09282C15.985 0.916586 15.5173 0.828359 15.0458 0.833196Z" fill="#9F9F9F"/>
  <g opacity="0.3">
    <path d="M11.5073 4.5H3.9998C3.0524 4.50242 2.14449 4.87985 1.47457 5.54977C0.804652 6.21969 0.427225 7.12759 0.424805 8.075V13.5292C0.432047 14.4734 0.811602 15.3766 1.481 16.0426C2.1504 16.7085 3.05556 17.0834 3.9998 17.0858H5.11814C5.28057 17.0837 5.441 17.122 5.58499 17.1972C5.72899 17.2724 5.85206 17.3821 5.94314 17.5167L6.7498 18.6808C6.85791 18.8359 7.00188 18.9625 7.16947 19.05C7.33705 19.1374 7.52328 19.1831 7.7123 19.1831C7.90133 19.1831 8.08756 19.1374 8.25514 19.05C8.42272 18.9625 8.5667 18.8359 8.6748 18.6808L9.4998 17.5167C9.59088 17.3821 9.71395 17.2724 9.85795 17.1972C10.0019 17.122 10.1624 17.0837 10.3248 17.0858H11.489C12.4371 17.0858 13.3464 16.7092 14.0169 16.0387C14.6873 15.3683 15.064 14.459 15.064 13.5108V8.05667C15.0592 7.11487 14.6829 6.21301 14.0169 5.54705C13.351 4.88108 12.4491 4.50482 11.5073 4.5Z" fill="#9F9F9F"/>
  </g>
  <path d="M4.53159 11.7595C5.00747 11.7595 5.39326 11.3737 5.39326 10.8978C5.39326 10.4219 5.00747 10.0361 4.53159 10.0361C4.0557 10.0361 3.66992 10.4219 3.66992 10.8978C3.66992 11.3737 4.0557 11.7595 4.53159 11.7595Z" fill="#9F9F9F"/>
  <path d="M7.7396 11.7595C8.21548 11.7595 8.60126 11.3737 8.60126 10.8978C8.60126 10.4219 8.21548 10.0361 7.7396 10.0361C7.26371 10.0361 6.87793 10.4219 6.87793 10.8978C6.87793 11.3737 7.26371 11.7595 7.7396 11.7595Z" fill="#9F9F9F"/>
  <path d="M10.9388 11.7595C11.4147 11.7595 11.8005 11.3737 11.8005 10.8978C11.8005 10.4219 11.4147 10.0361 10.9388 10.0361C10.4629 10.0361 10.0771 10.4219 10.0771 10.8978C10.0771 11.3737 10.4629 11.7595 10.9388 11.7595Z" fill="#9F9F9F"/>
</svg>

