<svg width="26" height="27" viewBox="0 0 26 27" fill="none" xmlns="http://www.w3.org/2000/svg">
<g clip-path="url(#clip0_388_86228)">
<path d="M0.541695 23.7923V5.37565C0.541695 4.80102 0.769968 4.24992 1.1763 3.84359C1.58263 3.43726 2.13373 3.20898 2.70836 3.20898H4.33336V21.6257H2.80153C2.2516 21.6165 1.7177 21.8109 1.30246 22.1716C0.887209 22.5322 0.619926 23.0337 0.551987 23.5794C0.522266 23.8805 0.555911 24.1844 0.650755 24.4716C0.7456 24.7589 0.899541 25.0231 1.10267 25.2472C1.3058 25.4714 1.55362 25.6505 1.83016 25.7731C2.10671 25.8957 2.40586 25.959 2.70836 25.959H22.75C23.0373 25.959 23.3129 25.8448 23.5161 25.6417C23.7192 25.4385 23.8334 25.163 23.8334 24.8757V6.45898C23.8334 6.17167 23.7192 5.89612 23.5161 5.69295C23.3129 5.48979 23.0373 5.37565 22.75 5.37565" stroke="#50CD89" stroke-width="1.08333" stroke-linejoin="round"/>
<path d="M25.1275 1.37412C25.2325 1.47901 25.3157 1.60356 25.3726 1.74065C25.4294 1.87774 25.4586 2.02468 25.4586 2.17308C25.4586 2.32148 25.4294 2.46843 25.3726 2.60552C25.3157 2.74261 25.2325 2.86716 25.1275 2.97204L16.3384 11.7611L14.7405 10.1632L23.5296 1.37412C23.6344 1.26914 23.759 1.18586 23.8961 1.12904C24.0332 1.07222 24.1801 1.04297 24.3285 1.04297C24.4769 1.04297 24.6239 1.07222 24.761 1.12904C24.898 1.18586 25.0226 1.26914 25.1275 1.37412Z" stroke="#50CD89" stroke-width="1.08333" stroke-linejoin="round"/>
<path d="M16.3385 11.7606L13.5418 12.9593L14.7405 10.1626M23.9288 4.17018L22.3309 2.57227M5.9585 5.37593H19.5002" stroke="#50CD89" stroke-width="1.08333" stroke-linejoin="round"/>
<path d="M7.58333 23.2507C8.18164 23.2507 8.66667 22.7656 8.66667 22.1673C8.66667 21.569 8.18164 21.084 7.58333 21.084C6.98502 21.084 6.5 21.569 6.5 22.1673C6.5 22.7656 6.98502 23.2507 7.58333 23.2507Z" stroke="#50CD89" stroke-width="1.08333" stroke-linejoin="round"/>
<path d="M18.9583 17.8346C19.5566 17.8346 20.0417 17.3496 20.0417 16.7513C20.0417 16.153 19.5566 15.668 18.9583 15.668C18.36 15.668 17.875 16.153 17.875 16.7513C17.875 17.3496 18.36 17.8346 18.9583 17.8346Z" stroke="#50CD89" stroke-width="1.08333" stroke-linejoin="round"/>
<path d="M7.58333 11.3346C8.18164 11.3346 8.66667 10.8496 8.66667 10.2513C8.66667 9.65299 8.18164 9.16797 7.58333 9.16797C6.98502 9.16797 6.5 9.65299 6.5 10.2513C6.5 10.8496 6.98502 11.3346 7.58333 11.3346Z" stroke="#50CD89" stroke-width="1.08333" stroke-linejoin="round"/>
<path d="M8.66667 21.6257L18.4167 17.2923M18.9583 15.6673V15.1257C18.9583 14.551 18.7301 13.9999 18.3237 13.5936C17.9174 13.1873 17.3663 12.959 16.7917 12.959H13.5417M7.58333 11.334V11.8757C7.58333 12.163 7.69747 12.4385 7.90063 12.6417C8.1038 12.8448 8.37935 12.959 8.66667 12.959H11.9167M20.0417 21.084L17.875 23.2507M20.0417 23.2507L17.875 21.084M8.66667 15.6673L6.5 17.834M8.66667 17.834L6.5 15.6673" stroke="#50CD89" stroke-width="1.08333" stroke-linejoin="round"/>
</g>
<defs>
<clipPath id="clip0_388_86228">
<rect width="26" height="26" fill="white" transform="translate(0 0.5)"/>
</clipPath>
</defs>
</svg>
