<svg xmlns="http://www.w3.org/2000/svg" width="6" height="6" viewBox="0 0 6 6" fill="none">
  <path opacity="0.3" d="M5.20832 2.80176L2.30249 0.0517578C1.75 0.763072 1.08783 1.38192 0.34082 1.88509L3.32915 4.72676C3.45481 4.87352 3.61017 4.99195 3.78498 5.07423C3.95979 5.15651 4.15007 5.20077 4.34325 5.20408C4.53642 5.20739 4.7281 5.16968 4.90563 5.09344C5.08315 5.0172 5.24249 4.90416 5.3731 4.76179C5.50371 4.61942 5.60263 4.45097 5.66333 4.26754C5.72403 4.08412 5.74512 3.88991 5.72522 3.69773C5.70531 3.50555 5.64486 3.31978 5.54786 3.1527C5.45085 2.98561 5.31951 2.841 5.16249 2.72843L5.20832 2.80176Z" fill="#9F9F9F"/>
</svg>

